<?xml version="1.0" encoding="utf-8"?>

<!DOCTYPE svg PUBLIC "-//W3C//DTD SVG 1.1//EN" "http://www.w3.org/Graphics/SVG/1.1/DTD/svg11.dtd">
<svg version="1.1" id="Layer_1" xmlns="http://www.w3.org/2000/svg" xmlns:xlink="http://www.w3.org/1999/xlink" x="0px" y="0px"
	 viewBox="0 0 2389.849 1644.492" enable-background="new 0 0 2389.849 1644.492" xml:space="preserve">
<g>
	<path d="M854.952,739.29c17.21,17.135,13.817,36.984,34.514,36.116c5.233-0.219,11.782,5.394,11.893,12.216
		c0.125,7.713,4.35,12.207,9.281,16.637c59.23,53.22,62.546,17.687,144.138,60.591c-1.897-9.666-9.796-11.167-14.126-14.083
		c-21.721-14.627-37.91-56.266-24.971-56.35c2.983-0.019,2.674,2.571,2.674,4.506c0.001,17.025,9.64,29.989,19.085,45.934
		c1.97-13.148-5.701-23.996-0.642-35.822c13.531,10.971-5.494,31.589,32.373,54.68c2.409,1.469,5.105,3.451,6.234,5.867
		c6.062,12.967,20.604,15.801,30.541,28.366c-0.905-12.046-6.975-19.85-5.847-29.034c0.444-3.612-1.216-20.868,7.376-19.53
		c5.739,0.894,3.162,7.864,2.388,11.583c-5.45,26.195,4.137,45.935,24.952,61.292c6.334,4.673,6.777,4.84,15.214,3.034
		c0.646-3.646-18.509-10.205-10.943-26.745c16.881-36.905,93.258,15.257,109.144,66.481c3.696,11.919-2.883,20.443-6.725,30.443
		c16.01-2.976,26.014-14.826,30.307-31.087c10.525-39.867,2.252-77.629-17.034-111.669c-13.142-23.196-27.258-47.531-53.489-61.015
		c-42.05-21.616-75.356-72.819-103.466-72.731c-3.207,0.01-11.001,0.316-10.919-5.349c0.089-6.164,7.776-2.18,11.616-5.094
		c-3.894-5.589-8.29-3.467-13.016-1.943c-10.548,3.402-1.105-8.366-23.583-49.909c-32.347-59.784-96.27-115.195-169.345-118.603
		c-8.673-0.404-18.333,3.912-27.13-2.073c21.158-13.348,57.448-0.217,81.092,5.839c-16.464-16.879-51.219-21.721-73.139-20.84
		c-3.422,0.138-9.029,1.639-9.183-3.41c-0.186-6.059,5.675-4.084,9.519-4.409c14.154-1.195,28,1.572,41.068,5.947
		c21.501,7.197,43.332,4.359,64.99,4.111c12.981-0.149,21.232-11.256,29.658-19.67c4.291-4.285,1.319-9.805-5.567-9.63
		c-23.138,0.585-43.749-9.374-65.272-15.404c-3.645-1.021-10.999-2.283-8.705-8.005c3.154-7.867,22.694,11.941,52.743,12.744
		c-9.712-7.308-17.383-12.912-24.835-18.795c-8.123-6.413-1.533-10.981,4.894-7.327c28.887,16.425,44.439,35.913,98.563,39.33
		c77.765,4.91,73.122-8.66,101.918-0.204c27.36,8.034,55.924,8.433,83.941,12.238c26.526,3.602,45.196-10.724,60.659-30.235
		c2.21-2.788,3.517-8.3,7.579-5.642c4.248,2.779-0.454,6.833-2.197,9.533c-16.456,25.488-33.869,18.684-25.263,53.769
		c7.297,29.749,22.123,56.299,32.87,84.545c8.489,22.311,23.174,40.518,42.249,54.671c7.03,5.216,7.524,9.139,4.913,17.248
		c-3.333,10.351-3.389,21.757-5.997,33.093c-2.62-10.434-7.383-19.925-11.228-29.799c-1.312-3.37-1.121-9.748-6.739-8.669
		c-5.024,0.964-2.862,6.007-1.653,9.041c2.814,7.063-5.206,3.193-9.837,9.735c-4.487,6.339,8.529,13.388-1.087,19.373
		c-9.356,5.823-3.529,13.687-2.592,20.932c2.966,22.933,17.069,41.115,26.181,61.42c0.493,1.099,2.609,1.469,5.071,2.753
		c-0.667-29.029-19.83-51.197-24.877-79.583c11.079,9.063,10.908,23.429,21.828,32.362c6.169-22.044-13.106-34.192-15.293-52.532
		c4.279,0.401,6.839,2.057,6.975,6.403c0.524,16.839,16.625-0.103,14.79,30.706c-3.822,64.153,11.75,80.605,19.641,135.332
		c4.064,28.187,25.371,35.77,47.724,33.38c6.375-0.682,12.601-3.091,18.779-5.073c5.834-1.871,5.697-6.741,0.409-7.489
		c-18.065-2.553-19.39-15.334-19.538-30.051c-0.92-91.764,20.455-99.114,31.653-110.977c2.754-2.917,7.233-3.043,10.031,0.175
		c7.212,8.294,6.098,1.304,8.13-3.496c10.195-24.079-17.698-48.916-10.565-60.491c7.738,9.391,9.466,21.112,16.663,31.371
		c9.956-24.573,6.231-48.016,0.224-70.919c-5.76-21.963-10.54-44.995-32.443-60.308c12.481,3.55,10.62-0.662,9.565-9.477
		c-3.931-32.843-21.434-55.971-49.324-73.255c9.216-7.886,13.812,3.939,27.533,15.818c2.59,2.242,4.511,9.212,9.263,4.512
		c3.363-3.327-0.443-8.104-3.1-10.783c-9.837-9.915-18.299-21.376-30.833-28.392c-3.085-1.727-6.766-3.115-6.83-9.127
		c14.449,3.3,22.541,15.931,36.909,23.291c-10.715-27.369-35.798-35.702-54.118-51.326c18.128,0.073,27.921,16.387,44.377,21.186
		c-27.582-33.314,23.323-83.899-136.458-108.187c-76.418-11.616-135.648-68.208-196.061-77.763
		c-45.304-7.166-47.181,10.579-100.536-15.661c-6.722-3.306-3.694-9.067,3.445-7.166c52.724,14.04,22.113,9.309,54.767,12.195
		c2.382,0.211,5.484-0.225,4.991-3.725c-1.159-8.22-9.972,5.892-23.715-5.913c8.925-1.886,17.04,1.646,27.458-1.741
		c-26.153-19.126-58.052-19.876-86.132-36.202c52.906-9.795,108.606,45.645,133.651,51.8c29.552,7.263,55.146,23.159,81.67,37.012
		c81.498,42.564,105.252,31.889,145.99,43.313c125.864,35.296,62.987,92.667,113.828,97.297
		c-3.433-9.76-14.391-12.429-18.063-20.823c4.331-7.553,9.968,9.191,16.262,4.406c2.665-2.027,2.04-9.165,1.887-13.966
		c-0.447-14.06,5.115-27.513,3.557-41.701c-7.114-64.766-81.927-81.422-104.661-90.122c-61.248-23.437-60.438-43.842-172.923-84.142
		c-28.178-10.095-57.73-15.104-86.198-24.091c-3.755-1.185-8.522-1.251-12.254-0.06c-15.743,5.023-29.891-0.764-44.32-5.398
		c-2.53-0.812-5.182-1.691-4.605-4.599c2.642-13.307,151.01,12.522,186.255,35.561c3.961,2.589,8.305,5.739,13.568,2.499
		c-0.053-0.86,0.207-2.119-0.197-2.391c-26.012-17.518-47.537-40.638-74.9-56.918c-68.102-40.516-45.244-33.436-71.974-37.324
		c-108.277-15.748-71.958-10.292-176.109-5.031c-31.13,1.572-86.857,11.652-109.606-8.471c-11.995-10.61-18.563,5.201-25.025,4.504
		c-16.943-1.827-33.587,5.087-50.59,1.641c-7.591-1.538-13.08,2.77-16.973,8.107c-25.295,34.676-54.584,66.418-73.107,106.047
		c-9.341,19.986-23.827,37.506-35.072,56.678c-58.535,99.797-46.366,103.054-66.499,153.172
		c-6.653,16.56-10.299,33.407,1.697,50.482c15.061,21.438-10.918,42.318,94.461,133.991c3.583,3.117,6.572,6.919,12.545,6.74
		c4.125-0.124,6.916,3.703,7.779,8.182c-32.087,7.174-39.715-35.835-64.694-14.303c-33.951,29.267-73.399,9.749-149.561,3.353
		c-19.349-1.625-37.472-8.812-56.284-12.938c-33.593-7.369-67.475-15.796-95.687-36.428c-13.345-9.76-24.648-18.828-42.673-18.565
		c-13.416,0.196-23.154-21.003-41.266-19.562c-19.54,1.555-99.493-13.475-92.299-30.681c3.186-7.62,9.924-0.119,14.667,1.567
		c16.955,6.025,34.094,14.573,51.701,14.078c32.764-0.922,70.446,16.385,87.539-19.47c59.406-124.616,20.04-63.055,108.243-267.612
		c9.299-21.567,22.463-32.457,41.408-77.28c2.606-6.165-9.968-21.064-20.121-24.704c-26.22-9.402-21.55-7.607-23.257-11.358
		c4.229-2.368,8.137-1.517,11.828,0.382c13.441,6.915,28.386,6.279,42.728,8.197c26.325,3.521,9.959-3.031-59.902,207.086
		c-1.552,4.669-1.067,11.839-9.87,7.295c-3.296-1.701-4.792,1.202-6.126,4.176c-13.761,30.701-21.471,37.686-9.338,39.705
		c88.994,14.808,84.949,11.872,87.987,18.384c-5.183,2.765-10.007,1.823-14.677,1.155c-73.796-10.555-86.156-25.66-85.694-2.778
		c0.295,14.619-10.799,25.384-16.557,37.929c-11.546,25.153-21.309,50.733-26.743,77.902c-1.732,8.658-1.385,13.908,10.305,15.706
		c25.926,3.986,49.445,16.593,74.579,23.856c27.597,7.974,83.1,14.185,100.021,20.462c13.643,5.061,43.682,1.689,44.612,15.909
		c0.367,5.617,5.556,12.45-5.737,14.941c6.38,3.851,12.917,4.559,15.503,1.652c5.272-5.925-7.145-13.188-6.926-19.379
		c1.095-31.044-29.839-8.263-134.418-43.407c-11.801-3.966-24.019-3.527-35.971-7.22c-17.085-5.279-33.784-11.956-51.268-16.278
		c-10.269-2.539-1.435-10.473-1.478-17.642c38.12,25.662,109.799,35.688,140.482,40.284c25.796,3.864,50.117,13.036,75.31,18.705
		c5.412-16.413-9.081-30.056-8.124-46.464c0.426-7.302-4.78-2.627-139.315-31.931c-17.45-3.801-34.362-10.116-51.431-15.561
		c-2.36-0.753-6.107-1.971-4.156-6.088c1.851-3.907,4.612-2.094,7.262-0.874c43.438,19.988,139.704,30.822,170.25,39.708
		c14.967,4.354,13.94-11.94,14.71-18.47c13.951-118.4,160.506-351.515,180.544-352.039
		C636.254,207.809,593.63,272.001,564.1,343.928c25.839-45.107,78.423-139.884,133.625-206.156c2.725-3.272,6.08-6.641,5.459-10.713
		c-0.938-6.155,1.244-5.153,5.548-4.358c2.425,0.448,6.169-1.463,6.569-4.59c0.53-4.147-3.009-2.434-5.175-2.563
		c-4.934-0.294,1.354-9.027,5.158-8.912c9.706,0.294,6.31-9.279,10.407-13.242c1.804-1.745-0.844-4.004-3.941-4.241
		c-38.5-2.956-75.054-16.73-113.494-20.442c-8.692-0.839-16.957-5.868-26.32-4.71c-7.142,0.884-5.612-7.574-0.161-7.34
		c2.023,0.087,4.058,0.586,6.029,1.12c25.056,6.798,51.051,8.378,76.37,13.725c1.493,0.315,3.193-0.348,6.057-0.719
		c-10.56-10.553-44.789-8.284-85.763-18.397c-2.331-0.575-5.846-1.133-7.261,0.092c-14.184,12.287-27.886,2.1-41.515-0.811
		c-30.571-6.529-67.758,27.659-67.068,38.786c0.563,9.089-6.722,7.996-14.123,8.246c13.852,13.125-8.255,14.229-6.494,30.481
		c0.357,3.291-1.903,6.695-5.883,6.684c-10.333-0.028-1.579-14.912-7.447-20.706c-10.403-10.272,13.113-4.16,11.758-17.008
		c-0.633-6.004-5.794-4.355-9.787-4.19c-23.326,0.96-44.713-5.977-65.331-16.059c-1.094-0.535-2.388-1.327-3.447-1.15
		c-4.144,0.692-10.281-2.813-12.079,2.164c-1.995,5.521,5.172,5.613,8.183,7.192c15.164,7.953,31.3,13.706,47.971,17.604
		c4.501,1.052,8.637,2.009,12.19,5.085c-5.65,4.285-25.19,2.874-33.323-2.746c-10.268-7.095-32.297-11.882-38.751-15.724
		c-15.736-9.37-15.874-9.389-1.704-18.303c-30.793-12.565-63.326-25.686-130.727-20.447c-14.111,1.097-25.227,11.922-29.704,4.18
		c-4.786-8.276,17.09-22.828,31.955-22.286c76.775,2.802,126.067,5.765,166.273,23.796c12.12,5.435,26.917,1.046,40.397,4.136
		c11.535,2.644,23.507,3.402,35.297,4.906c36.791,4.692,36.622-48.777,62.973-43.733c38.672,7.403,4.142,13.904,94.217,29.103
		C776.706,77.95,722.538,63.944,779.464,94.405c30.984,16.58,62.496,31.47,99.82,22.928c15.516-3.551,31.922-1.443,47.954-2.975
		c57.601-5.507,123.297-8.581,185.302,1.985c28.436,4.846,54.899,38.562,89.277,62.288
		c84.088,58.034,120.674,106.667,203.938,129.552c30.114,8.277,81.677,43.053,67.125,70.773c-0.82,1.561-0.578,4.345,0.265,6.01
		c8.229,16.26,5.166,33.081,1.739,49.498c-3.057,14.646,1.656,28.598,1.693,42.967c0.09,34.972,2.12,69.95,3.855,104.902
		c2.244,45.197,32.45,112.294,17.271,171.411c-10.914,42.504-9.171,6.732-27.075,116.266c-0.755,4.621-0.104,9.735-6.464,9.841
		c-8.273,0.138-3.922-6.223-4.613-9.991c-4.665-25.439,9.735-53.581,1.87-62.276c-7.008,6.264,0.501,16.987-8.61,22.68
		c-4.706-11.756,4.872-21.094-0.085-23.001c-1.988-0.765-4.625-0.602-4.83,2.05c-2.691,34.938-28.36,88.547,13.74,79.636
		c0,0,390.866,5.237,478.791,0.246c48.192-2.736,28.213,1.959,157.017,1.979c8.78,0.001,17.072-1.651,17.507,6.451
		c0.388,7.231-10.022,5.8-20.381,5.972c-19.825,0.329-40.007,2.83-59.361,1.516c-79.805-5.415-241.302,1.235-319.544,0.796
		c-15.245-0.085-30.346-1.992-45.724-1.712c-10.28,0.187-122.771,1.562-182.71-4.524c-2.832-0.288-6.065-1.896-7.749,1.452
		c-1.764,3.509,1.729,5.118,3.772,6.808c9.297,7.689,11.505,17.437,12.381,29.362c2.897,39.447-10.696,44.553-41.644,58.275
		c-31.966,14.174-55.277,2.387-50.053,19.85c3.813,12.745-0.851,22.733-10.172,30.769c-19.811,17.081,10.467,39.593-27.943,41.304
		c-77.535,3.454-77.981,1.643-78.893-12.55c-0.46-7.153,6.102-15.615-0.793-21.047c-5.892-4.642-14.407-1.277-21.76-1.272
		c-27.73,0.018-55.619-1.702-83.151,0.676c-35.226,3.042-70.546,1.419-105.88,5.534c-23.159,2.697-46.987,6.082-71.03,4.524
		c-13.786-0.893-258.708,45.666-359.327,61.177c-67.722,10.44-138.619,30.677-248.491,40.977
		c-72.542,6.801-102.108,17.134-178.008,8.317c-72.313-8.401-83.704-13.423-100.023-32.531
		c-10.394-12.171-2.208-40.902,12.829-46.907c22.942-9.162,44.903-14.06,28.549-31.707c-5.167-5.576-9.66-9.339-4.288-18.34
		c3.478-5.828,3.549-14.046-3.793-20.819c-9.33-8.606-12.734-21.351-14.604-33.443c-7.033-45.484,40.313-26.379,16.401-73.969
		c-1.935-3.852-0.097-7.376,1.662-9.047c11.031-10.482,5.128-23.989,7.097-36.017c0.386-2.358-1.163-5.175-0.436-7.307
		c2.45-7.181-1.487-8.637-6.641-6.834c-21.971,7.685-34.804-10.012-36.052,9.366c-1.244,19.315,2.869,38.803-1.963,57.981
		c-0.524,2.08-0.285,4.518,2.221,4.991c5.987,1.129,4.201-7.316,9.718-28.318c3.763-14.324,29.923-12.68,24.608,1.306
		c-2.977,7.834-16.096-13.155-20.183,9.939c-4.642,26.228-86.724,482.979-86.763,486.704c-0.159,15.182,5.747,5.358,91.352,13.777
		c65.939,6.485,284.521-1.625,358.181,4.523c136.585,11.398,1118.194-12.77,1483.916-0.078c78.574,2.727,59.583-2.425,307.105-1.908
		c7.41,0.016,14.389,4.034,21.94,2.433c7.503-1.591,12.025-5.328,8.92-13.79c-14.888-40.569-78.438-482.917-78.581-483.959
		c5.047-1.114,5.23,1.69,5.658,4.039c43.737,240.054,61.109,393.896,85.224,496.285c1.402,5.952,4.081,11.971-1.684,17.221
		c-1.306,1.19-1.87,2.717-1.078,4.419c9.118,19.611,1.594,40.426,4.396,60.492c3.032,21.709-25.083-2.149-33.963,18.916
		c23.849,7.265,27.096,27.155,27.657,48.052c0.456,16.977-13.597,34.607-32.071,41.816c-37.892,14.785-77.054,12.11-116.086,7.412
		c-15.248-1.835-0.685-7.987-0.109-11.95c-9.898-10.285-26.908,15.177-45.67-27.907c-6.407-14.713,0.797-45.592,18.866-54.45
		c0.31,10.164-7.742,12.355-9.63,34.652c-1.295,15.3-1.083,15.054,14.565,15.338c16.48,0.299,33.101-1.861,49.396,2.312
		c9.24,2.366,8.898-7.841,14.162-11.03c-24.137,0-48.274,0-72.411,0c28.196-5.625,56.784-6.555,86.189-6.321
		c-4.739-9.831-13.83-8.753-19.826-8.07c-19.684,2.242-39.623-2.42-59.088,2.765c-2.999,0.799-6.834,0.086-6.929-3.231
		c-0.133-4.68,4.44-3.997,7.449-3.737c28.552,2.471,56.961-5.264,87.387,0c-8.799-13.366-13.554-10.318-82.449-8.417
		c-2.122,0.059-4.119,0.205-5.784-1.789c1.338-6.49,6.682-4.661,10.773-4.706c15.313-0.17,30.635-0.33,45.94,0.035
		c12.1,0.289,26.079-10.994,22.735-15.528c-2.297-3.114-5.146-0.232-7.505,1.262c-19.499,12.346-40.749,5.493-61.358,5.484
		c-0.74,0-1.48-1.788-2.92-3.645c17.628-0.411,34.7,0.944,54.125-3.607c-17.709-11.534-12.9-3.084-66.088-5.981
		c-35.133-1.914-83.113,11.276-156.056,4.213c-33.614-3.255-67.268-1.746-100.944-0.818c-3.088,0.085-148.615-0.903-148.615-0.903
		c-24.398,1.463-47.579-7.653-71.799-6.004c-2.243,0.153-4.594-0.749-7.123-0.068c-45.266,12.193-175.229-0.566-230.152,3.147
		c-171.298,11.582-611.668,4.534-624.358,4.387c-124.732-1.44-323.025,5.426-439.429-5.281c-21.749-2-43.246,3.865-64.746-1.364
		c-17.058-4.149-22.065,7.633-29.956,3.971c-19.375-8.991-38.902-4.08-58.435-0.824c-7.077,1.18-7.11,4.16-4.304,10.258
		c13.498,29.331,7.981,54.407-16.317,76.219c-9.313,8.36-21.373,10.719-33.016,11.7c-65.918,5.555-93.593,4.508-115.212-15.617
		c-27.368-25.476-23.995-57.029,0.439-85.156c-2.074-1.304-3.696-3.175-5.424-3.279c-17.006-1.025-15.742-13.455-16.643-25.27
		c-6.097-79.889,17.19-108.145,62.891-389.685c5.969-36.773,15.373-72.834,20.905-109.703c1.654-11.026,2.96-23.478,9.833-33.7
		c6.053-9.002-11.308-5.051-24.889-2.786c-8.364,1.395-12.405-0.955-11.719-10.334c3.243-44.356,2.612-170.714,2.616-171.715
		c0.013-2.953-0.222-5.737-2.443-8.029c-8.374-8.643-2.444-14.518,4.625-18.751c7.804-4.674,16.96-3.808,25.026-0.769
		c7.718,2.907,7.789,10.479,7.675,17.854c-0.301,19.445,0.416,38.917-0.328,58.338c-0.903,23.579,15.182,10.061,28.146,14.524
		c13.403,4.614,13.712-3.547,14.219-12.86c1.639-30.149,3.038-32.021,33.896-36.996c10.774-1.737,13.06-5.529,11.488-16.474
		c-3.74-26.033-5.63-52.411-16.738-76.691c-29.425-64.318-41.303-73.795-134.172-168.72c-14.892-15.222-43.713-30.416-32.995-40.493
		c3.064-2.881,6.183-3.862,9.851-0.958c13.48,10.675,27.713,20.016,39.16,33.603c13.836,16.422,26.885,33.549,44.355,47.245
		c24.68,19.349,68.558,81.37,80.156,104.219c43.578,85.852,14.123,111.833,43.33,119.258c38.875,9.883,31.325,46.82,28.543,104.705
		c-0.491,10.226,2.231,13.623,13.542,12.231c60.75-7.476,321.492-2.191,364.788-4.489c23.626-1.254,374.475-5.992,420.568,2.614
		c1.683,0.314,3.597,0.286,4.136-1.555c0.935-3.193-1.797-4.311-3.95-5.264c-13.197-5.846-80.872-34.144-94.601-37.458
		c-17.914-4.325-37.243-1.057-67.271-31.449c-93.158-94.288-129.998-64.847-233.424-145.014c-4.632-3.59-18.773-16.36-13.166-18.558
		c14.232-5.58,1.019-9.859-1.123-12.457c-13.4-16.249-39.579-57.984-28.995-75.467c5.359,30.487,19.538,55.88,41.004,77.224
		c4.526-0.925,0.871-6.323,4.998-8.189c3.994,11.522,12,19.793,23.178,29.392c-0.199-25.78-19.834-29.857-13.585-78.652
		c7.197,17.182,5.091,36.238,11.857,53.499c6.815,17.387,18.363,31.633,28.712,46.931c-6.067-3.913-12.371-7.076-16.094-13.562
		c-1.146-1.996-2.571-6.478-6.257-3.674c-3.43,2.609,0.85,4.838,1.41,7.313c1.702,7.527,8.068,10.892,13.694,13.032
		c10.396,3.954,19.529,10.22,29.779,15.235c-32.036-39.085-36.26-48.908-37.043-102.342c-0.1-6.811,8.81-3.757,7.148,3.158
		c-2.27,9.443-0.922,18.934-0.97,28.416c-0.095,18.851,7.36,34.687,20.965,46.92c6.69,6.016,8.038,17.73,19.504,18.536l-0.354-0.379
		c0.255,4.003-3.488,5.787-5.331,8.739c13.476,6.059,25.844,13.664,42.807,17.991c-10.913-14.022-20.678-26.102-25.367-40.598
		c-4.554-14.079-10.062-28.699-2.335-44.232c-6.003,42.477,23.147,66.416,46.576,93.473c-15.047-23.563-28.808-47.146-20.798-77.085
		c5.725,15.228-0.369,34.077,11.19,46.993c11.096,12.398,12.812,31.201,28.63,40.208c-3.333-7.456-6.243-14.74-4.099-22.924
		l-0.393,0.341c8.697,14.327,13.055,32.488,33.925,39.008c-2.782-8.096-9.259-11.646-10.003-18.292L854.952,739.29z
		 M165.628,1107.828c19.574,10.402,40.884,9.566,62.054,9.537c13.191-0.018,26.201-1.039,38.002-8.378
		c-15.655,1.789-31.377,2.276-46.866,3.782c-18.491,1.799-35.313-8.518-53.554-4.76c-3.356-2.902-4.719-8.163-10.245-9.271
		c-0.676,4.269,0.021,9.062-2.047,11.287c-22.322,24.018,110.62,35.873,127.933,8.514c1.299-2.053,3.586-3.82,1.15-6.315
		c-1.901-1.947-3.804-0.424-5.557,0.557c-36.021,20.159-73.09,9.412-109.895,3.416
		C161.699,1115.397,157.6,1111.727,165.628,1107.828z M1326.196,700.15c-2.779,0.414-4.563-1.164-6.464-2.9
		c-17.052-15.574-21.958-37.161-35.292-79.887c-2.46,18.511,4.071,34.95,8.448,51.789c5.943,22.863,31.999,47.307,23.865,53.161
		c-3.463,2.493-5.507-0.852-6.921-2.88c-19.168-27.492-17.749-28.769-29.512-69.122c-1.967,34.857,15.689,63.14,30.704,92.341
		c-19.306-12.165-21.712-34.514-33.151-51.262c1.675,29.078,18.131,50.845,33.841,74.788c5.489-8.568,2.171-15.749,3.477-22.546
		c2.848-14.816,11.732-28.139,10.62-43.801c7.515-6.485,7.935-13.332,1.933-21.319c-25.94-34.518-28.314-65.42-36.467-79.288
		c-2.609,1.258-3.958,3.041-3.243,5.184c4.882,14.637,8.035,29.699,13.964,44.173C1309.232,666.24,1319.542,682.321,1326.196,700.15
		z M350.943,901.086c0.001,0.849,0.003,1.698,0.004,2.547c-19.449,0-38.977,1.075-58.323-0.342
		c-15.337-1.124-7.073,16.122-16.721,18.625c-1.882,0.488-3.213,2.719-2.234,5.048c0.456,1.085,1.477,1.949,2.299,2.862
		c24.471,27.221,36.176,34.838,29.21,52.811c-6.987,18.029-13.126,36.385-27.743,50.332c-3.837,3.661-10.03,7.778-7.996,14.05
		c3.095,9.547,7.007,19.131,20.914,15.718c5.902-1.448,12.36-0.488,18.54-0.965c165.566-12.775,169.703-10.569,188.708-22.398
		c1.323-0.823,3.201-1.386,4.705-1.189c58.65,7.682,353.12-31.27,366.212-33.87c152.773-30.335,289.845-26.289,292.961-26.425
		c7.516-0.327,8.523-4.461,3.903-9.596c-8.718-9.69-17.837-19.956-27.966-27.125c-83.302-58.955-19.333-41.627-112.994-44.126
		c-181.975-4.855-407.762,4.768-475.58,3.542c-23.491-0.425-46.833-1.385-70.47-0.133
		C436.003,902.697,393.43,901.086,350.943,901.086z M142.814,1423.45c17.056,1.937,4.702,36.086,11.159,64.229
		c1.042,4.542,2.188,8.533,7.18,8.23c4.961-0.301,4.658-4.596,4.463-8.55c-3.001-60.765-4.175-62.491,1.856-62.911
		c5-0.348,4.832-2.796,6.564,63.896c0.095,3.674,1.09,8.296,4.169,7.645c10.051-2.122,18.289,4.897,27.712,4.337
		c13.677-0.813,27.31-2.544,40.993-3.068c21.344-0.817,42.493,2.717,64.041,1.748c103.955-4.679,107.439,9.4,112.323-8.197
		c2.669-9.614-2.822-20.389,4.606-30.136c8.049,12.933-5.754,38.653,13.139,39.259c20.073,0.644,40.306-2.854,60.245,2.028
		c3.299,0.808,5.767-0.58,5.483-4.541c-0.612-8.531,4.022-16.264,1.546-25.603c-2.645-9.977-1.283-21.035-1.504-31.625
		c-0.061-2.949-1.956-7.324,3.432-7.546c5.135-0.212,3.886,4.392,4.471,7.272c6.374,31.391-7.888,65.852,18.816,61.8
		c62.385-9.467,82.485,10.631,82.835-11.615c0.576-36.611-8.077-57.93,1.669-57.413c3.428,0.182,5.967,1.816,5.252,5.315
		c-2.924,14.317,2.155,28.414,0.19,42.937c-3.712,27.426,2.794,18.096,25.193,18.737c74.891,2.144,51.172,2.896,211.41,2.41
		c34.278-0.104,68.57-1.774,102.827,0.149c14.958,0.84,29.666-4.189,44.331-2.378c48.958,6.046,188.639-2.397,376.117-2.397
		c-10.776-11.756,0.231-27.797-4.707-59.788c-0.619-4.012-1.376-10.068,3.564-10.426c6.701-0.486,6.68,3,6.153,61.049
		c-0.138,15.145,18.395,6.071,31.546,6.321c177.691,3.382,224.843,4.297,278.962-1.25c-9.126-15.852-2.475-27.063-5.182-44.779
		c-1.307-8.552,3.535-20.811-3.143-24.768c-7.016-4.157-18.325-0.88-27.744-1.235c-6.277-0.237-6.559,2.735-5.427,7.706
		c3.999,17.561,2.48,35.283,1.025,52.973c-0.284,3.448,0.75,8.769-4.629,8.264c-5.861-0.551-4.219-4.129-5.086-59.783
		c-0.064-4.084,2.384-9.603-5.795-8.818c-7.146,0.686-7.618,4.332-6.144,10.133c4.234,16.659,1.98,33.693,2.526,50.568
		c0.128,3.962-0.464,8.168-5.274,8.026c-3.405-0.101-7.646-1.755-7.24-6.681c1.502-18.225-3.52-36.345-1.567-54.331
		c0.963-8.867-2.147-7.808-16.101-7.808c7.006,21.304,6.239,42.85,5.241,64.38c-0.232,4.99-9.985,6.742-10.304,0.152
		c-1.017-21.063-3.651-42.132-0.864-63.792c-1.322-0.225-3.288-0.842-5.258-0.853c-44.509-0.256-89.001-0.104-133.507-2.215
		c-40.231-1.909-40.063,1.78-116.922,2.172c-4.569,0.023-8.095-1.289-6.172,7.124c4.21,18.42,2.477,37.565,2.381,56.436
		c-0.061,11.88-11.619,9.851-10.031-1.079c2.733-18.808-3.018-37.616,0.023-56.425c0.684-4.233-1.29-6.158-5.491-6.039
		c-11.803,0.336-23.678-0.216-36.387,3.22c12.29,2.969,9.775,8.137,9.733,58.15c-0.003,4.032,0.909,9.652-4.633,9.821
		c-6.719,0.204-5.218-6.062-5.329-10.274c-1.207-45.859,0.869-61.131-15.12-60.039c-41.562,2.839-44.375-1.526-42.352,8.681
		c3.534,17.827,1.56,35.967,1.442,53.997c-0.075,11.517-11.734,9.99-10.893,1.386c1.995-20.433-2.869-41.047,1.707-61.883
		c-48.688-4.279-115.891,0.49-158.678,1.369c-222.978,4.582-564.116-3.636-571.471,2.319c-8.356,6.766,3.264,30.643-4.212,32.059
		c-6.304,1.194-15.079-20.543,1.07-36.41c-38.844,0-75.409,0-111.974,0c13.875,3.648,6.8,13.835,7.188,21.232
		c2.361,45.015,3.371,48.171-4.295,48.14c-6.056-0.024-2.716-4.503-3.125-7.23c-2.612-17.412-0.864-35.164-4.956-52.568
		c-3.017-12.834,0.114-9.517-99.957-9.517c0.797,3.715,5.288,6.027,5.086,11.255c-0.622,16.117-0.268,32.272-0.278,48.412
		c-0.008,13.484-10.722,9.159-9.844,0.062c2.039-21.123-7.297-51.193-0.191-61.15c-4.946,3.511-13.713-6.87-14.852,4.584
		c-2.733,27.494,9.127,40.22-1.751,41.507c-9.478,1.122-5.565-10.089-5.913-15.566c-0.494-7.771-7.333-15.993-2.563-22.713
		c7.984-11.248,1.605-8.718-5.448-7.235c-2.305,0.485-4.287-2.79-6.875-0.84c0,19.724,0,39.448,0,59.172
		c-12.43-50.034-1.177-60.541-13.998-60.125c-6.913,0.224-5.386,4.128-5.129,8.315c1.072,17.487-1.01,35.081,1.788,52.525
		c1.165,7.262-8.508,8.399-7.085,1.504c2.534-12.28-1.302-24.229-1.7-36.349c-0.778-23.679,3.129-30.216-24.562-25.864
		c0,0,7.136-1.373-79.929-4.83c-11.281-0.448-8.586,4.837-8.026,71.616c0.021,2.512-0.007,5.29,3.468,5.412
		c3.398,0.12,6.979-0.38,8.084-4.229c3.837-13.368-7.9-67.56,2.039-67.756c7.175-0.141,6.047,7.358,6.176,63.812
		c0.009,4.05,0.813,7.658,5.782,7.841c9.194,0.339,6.477-6.753,4.209-64.225c-0.296-7.499,7.413-6.581,7.261-1.289
		c-0.567,19.838,4.343,39.486,2.082,59.347c-0.302,2.65-3.422,5.75-0.16,7.574c2.387,1.335,14.528,0.845,12.679-8.289
		C142.042,1466.706,147.901,1445.442,142.814,1423.45z M197.219,1141.724c-0.054,0.907-0.108,1.814-0.162,2.721
		c58.037,6.237,33.731,7.136,137.896-0.095c73.846-5.126,79.106-9.975,127.048-17.155c27.12-4.061,54.484-6.576,81.519-11.099
		c33.008-5.522,65.707-12.865,98.675-18.646c391.346-68.625,413.717-61.132,588.174-71.478c15.187-0.901,30.489,3.34,45.793,0.872
		c0.007-5.098-3.997-6.034-5.706-8.655c-6.726-10.32-12.031-16.847-28.029-11.209c-22.409,7.896-43.168-2.483-60.115-18.748
		c-3.073-2.949-6.035-5.94-10.618-4.988c0,0-200.037,14.305-352.162,37.118c-49.089,7.362-270.125,29.672-286.029,31.808
		c-6.013,0.808-14.705,4.932-17.97-7.004c-1.337-4.887-9.788-3.621-12.625,0.57c-7.657,11.308-18.928,11.363-30.49,12.368
		c-202.137,17.578-75.134,8.388-205.141,16.904c-2.258,0.148-5.467-0.963-6.054,2.455c-0.668,3.891,2.445,4.359,5.391,5.196
		c4.341,1.234,8.416,3.437,12.774,4.577c17.569,4.595,6.476,19.401,10.364,28.857c2.205,5.362-0.969,9.463-4.922,12.841
		c-0.568,0.486-1.607,0.378-2.289,0.781C257.762,1144.357,240.315,1141.724,197.219,1141.724z M1040.214,508.051
		c-14.694,0.2-20.169,2.313-29.568,13.908c-13.318,16.429-51.045,24.436-20.685,42.264c20.933,12.292,75.408,55.155,105.481,115.05
		c22.444,44.701,41.453,43.322,116.301,99.969c63.472,48.038,44.79,74.714,66.9,93.397c4.87,4.115,21.388-4.842,26.658-3.694
		c6.663,1.451,6.987-1.942,5.315-6.887c-6.089-18.01-8.551-37.432-22.25-52.404c-14.275-15.603-15.832-59.76-34.482-83.601
		c-47.338-60.515-14.281-209.199-84.557-216.851c-15.903-1.732-31.238-5.536-48.197-1.962
		C1094.665,512.816,1067.23,507.297,1040.214,508.051z M1949.732,1496.091c-4.117-5.961-1.666-8.28-3.134-58.681
		c-0.131-4.49-4.842-10.686,3.057-11.969c8.31-1.35,9.314,6.127,9.055,11.678c-0.903,19.31,3.908,38.544,0.606,57.814
		c-0.624,3.638,1.204,5.126,3.732,4.349c7.11-2.187,13.724,1.546,20.726,0.875c27.641-2.646,55.362,0.263,82.91,1.144
		c54.318,1.737,108.66-0.772,162.97,2.646c25.055,1.577,50.378-1.057,75.578-1.843c24.437-0.762,19.801-13.945,14.288-59.041
		c-0.296-2.421-1.562-5.277-4.467-5.08c-5.517,0.375-1.907,4.321-1.851,6.499c1.245,48.235,4.105,50.457-3.213,50.83
		c-5.9,0.301-5.018-4.038-5.112-7.654c-1.331-51.359-3.729-57.023,9.215-55.752c0.664,0.065,2.322-2.456,2.213-3.655
		c-0.526-5.792-9.369-1.146-16.58-0.989c-0.001,0-238.546-2.094-238.547-2.094c-5.125-0.11-7.109,1.246-5.805,7.445
		c3.822,18.178,2.496,36.793,3.387,55.229c0.25,5.161-1.249,8.464-5.978,8.858c-9.137,0.761-4.902-6.528-8.557-57.802
		c-0.355-4.976,1.405-8.939,5.706-15.857c-43.339,0-83.955,0-126.693,0c10.782,2.365,8.98,9.895,10.717,16.733
		c3.848,15.149,0.257,30.355,2.504,45.404c0.995,6.663-3.206,9.626-9.891,9.452c-4.354-0.114-8.65,0.207-8.096-6.086
		c1.478-16.785,0.473-33.625,1.024-50.38c0.518-15.768,2.021-15.719-14.605-15.362c5.139,20.583,1.227,41.557,2.997,62.288
		c0.329,3.858-0.173,7.507-5.716,7.465c-5.095-0.039-7.424-1.722-7.204-7.27c0.231-5.82,0.223-11.635,2.361-17.092
		c2.581-6.587,5.791-12.031,0.318-19.785c-5.622-7.965-4.157-18.193,0.24-27.045c-4.577-2.195-7.441,1.636-10.438,0.974
		c-7.289-1.611-9.622-2.037-6.345,7.299c9.078,25.866,1.289,42.707,3.704,51.425c2.042,7.368,1.111,12.406-6.764,16.276
		C1890.059,1498.125,1939.483,1498.457,1949.732,1496.091z M1475.588,937.284c7.494-7.546,3.757-13.528-0.73-19.58
		c-4.537-6.119-8.848-8.418-17.387-3.049c-34.206,21.509-73.074,10.129-83.176-28.396c-0.622-2.372-0.587-4.878-4.104-4.963
		c-12.157-0.296-23.838-4.612-36.388-2.833c-16.147,2.289-32.515,3.069-48.808,4.214c-1.701,0.119-3.648-2.428-5.552-0.678
		c-5.15,4.736,8.233,12.057,7.398,30.097c-0.476,10.278,0.671,20.685-0.439,30.866c-1.225,11.241,3.681,16.552,13.929,16.85
		C1382.791,962.21,1448.853,964.206,1475.588,937.284z M1395.489,1024.042c-19.613,28.103-140.205,1.086-350.025,21.055
		c-369.316,35.148-804.475,173.047-917.336,78.15c-0.244-0.205-1.373,0.643-2.913,1.409c4.789,15.147,17.889,20.262,30.776,24.62
		c175.681,59.42,603.915-83.069,973.253-102.693C1333.125,1035.75,1403.328,1059.481,1395.489,1024.042z M1792.128,1422.285
		c7.072,10.269-0.172,20.259,2.557,29.225c3.792,12.455-0.234,24.603,0.876,36.842c0.32,3.524-1.677,6.627-6.069,5.315
		c-3.331-0.995-6.087-1.363-4.995-7.348c3.653-20.015,0.947-40.221-0.959-60.3c-0.56-5.898-5.511-4.121-9.068-4.05
		c-4.167,0.083-3.605,2.071-2.871,5.639c3.961,19.244,2.344,38.928,3.872,58.385c0.388,4.944-2.303,8.01-7.025,8.472
		c-6.735,0.659-5.306-4.317-5.309-8.387c-0.013-18.928-0.653-37.876,0.06-56.774c0.223-5.913-0.895-7.063-6.183-6.744
		c-4.889,0.296-7.646-0.357-6.949,7.274c1.636,17.893,0.917,35.998,1.27,54.016c0.098,5.01-0.131,8.721-7.039,8.47
		c-13.121-0.477,0.753-6.146-5.602-58.895c-0.526-4.368,3.108-11.615-6.84-10.911c-9.354,0.662-6.556,7.431-5.885,11.763
		c2.606,16.827-1.171,33.877,2.326,50.632c1.12,5.366-2.047,7.616-7.119,7.4c-3.823-0.163-8.013-0.351-6.862-6.037
		c3.641-17.977,0.02-35.99,0.539-53.803c0.487-16.734-8.168-7.8-14-9.455c4.802,19.034,3.497,37.708,6.236,55.993
		c3.813,25.452-9.202,18.591,145.567,18.271c17.659-0.036,17.669,0.335,19.091-17.186c2.461-30.329-2.95-38.106,1.362-53.604
		C1874.686,1420.827,1878.191,1422.285,1792.128,1422.285z M178.172,1033.864c13.675,8.579,26.548,6.501,40.297,5.47
		c-2.382-5.241-6.804-3.166-9.071-5.232c-2.214-2.018-7.466-1.503-6.417-6.136c0.84-3.709,4.681-2.656,7.417-2.627
		c6.16,0.066,11.397-2.382,18.023-5.007c-10.88-10.288-26.165,3.523-36.344-9.298c19.169-2.045,37.506,1.719,54.729-5.229
		c-12.054-5.364-25.243-0.495-37.585-4.253c2.757-7.062,15.155-0.234,16.083-7.471c0.607-4.73-4.723-2.953-7.597-3.77
		c-6.7-1.906-1.258-7.968,2.034-7.04c15.43,4.351,44.179,2.479,61.706-2.398c2.905-0.808,5.179,5.696,8.41,1.35
		c1.663-2.238-0.544-4.783-1.853-6.768c-2.384-3.615-5.517-1.755-8.774-1.091c-37.364,7.619-74.847,6.364-112.234,0.416
		c-4.162-0.662-10.667-0.411-13.123-8.19c29.14,6.543,57.368,8.278,88.285,5.842c-8.073-6.923-18.9-0.427-23.701-9.897
		c15.985-2.81,31.5-5.537,47.016-8.264c-0.161-1.327-0.322-2.654-0.483-3.98c-21.677,2.408-43.369,5.225-64.82,0.203
		c19.901-5.539,40.624-2.796,60.674-5.847c-0.043-1.367-0.086-2.734-0.129-4.102c-22.918,0-45.836,0-68.753,0
		c-0.02-1.356-0.04-2.712-0.06-4.067c13.33,2.522,26.182-0.253,39.306-0.935c-12.18-2.597-24.658-2.14-36.336-4.976
		c-17.294-4.2-28.708-1.651-32.338,17.954c-0.637,3.44-5.937,5.761-7.912,9.26c-4.447,7.879-13.996,13.737-12.352,24.077
		c2.534,15.941,6.928,31.167,21.245,41.548c4.413,3.199,5.723,7.527,13.644,4.224c6.572-2.74,16.419-0.016,24.484,6.867
		C193.214,1035.916,186.803,1030.466,178.172,1033.864z M57.152,1523.834c2.999-9.513,2.587-6.71,67.2-4.47
		c3.092,0.107,7.768,1.603,8.642-2.43c0.913-4.216-3.92-3.828-6.74-5.097c-17.636-7.936-36.755-4.114-54.989-7.176
		c-2.922-0.491-5.25,0.743-7.729,2.775c-23.255,19.071-26.611,40.689-14.614,66.592c7.314,15.791,40.931,23.647,54.806,13.039
		c-12.482-1.46-25.031,1.53-35.143-8.385c13.526,0,27.052,0,40.578,0c-17.483-11.391-38.366-3.158-56.1-12.08
		c57.728-7.105,70.077,3.243,70.366-6.12c0.23-7.434-7.772-3.406-11.734-3.477c-20.376-0.365-40.747-0.192-60.879-3.742
		c-0.055-1.124-0.109-2.249-0.164-3.373c28.098,0,56.196,0,85.354,0c-3.613-9.446-0.107-7.849-80.498-9.818
		c-2.042-0.05-4.378,0.719-5.269-1.714c-1.274-3.478,1.898-3.95,3.984-4.905c6.852-3.133,13.815-0.75,20.627,0.049
		c20.107,2.358,40.055-0.912,62.391,0.761c-2.928-3.468-3.77-5.497-4.988-5.755C107.772,1523.31,82.741,1525.753,57.152,1523.834z
		 M174.82,896.189c6.177-5.342,3.342-3.697,4.265-70.749c0.039-2.854-2.229-8.027,2.181-8.307c5.769-0.365,3.707,5.255,3.675,8.508
		c-0.813,81.939-9.555,72.416,29.284,72.866c10.014,0.116,2.584-3.792,4.768-26.163c1.714-17.557-4.356-35.019-0.208-52.556
		c2.834-11.979-15.06,2.404-30.517-10.714c16.025,2.678,19.396-1.901,13.527-15.731c-2.565-6.045-3.877-5.521-9.216-4.987
		c-15.813,1.58-15.496,16.759-17.441,24.954c-4.073,17.162-3.127,35.726-2.645,53.671
		C172.744,876.347,168.923,886.371,174.82,896.189z M1188.362,909.28c10.034,10.31,21.149,15.83,27.857,29.922
		c-18.078-12.545-31.752-25.103-49.643-30.969c20.834,16.929,43.015,32.088,59.606,53.579
		c-20.377-14.279-37.059-33.73-62.144-40.881c25.255,17.715,48.069,37.645,65.642,62.854c-22.952-15.46-40.756-37.093-65.523-53.228
		c0.768,9.306-0.336,6.293,55.68,54.648c1.67,1.442,4.963,2.129,3.305,5.368c-5.136,10.037-28.572-13.229-50.581-31.626
		c37.722,60.665,68.383,40.001,69.48,17.197C1243.149,953.134,1214.974,916.578,1188.362,909.28z M1281.118,977.267
		c-4.897,4.982-6.399,11.209-10.098,18.289c49.803,0,10.362,6.968,129.604,1.839c37.183-1.599,26.559-6.832,27.559-30.219
		c0.148-3.447-1.946-4.27-4.738-3.729c-4.718,0.915-0.204-0.22-0.397,21.192c-0.064,7.132-12.1,8.887-12.231-0.583
		c-0.082-5.925-0.335-11.85,2.114-17.785c-24.784-2.088-48.091,3.326-71.487,1.661c-9.06-0.645-15.069-0.859-10.479,10.896
		c0.391,1.001,2.3,14.869-3.468,15.481c-8.543,0.906-0.631-28.813-10.625-27.906c-5.76,0.522-1.055,2.45-0.562,19.931
		c0.072,2.538,1.285,6.236-3.334,6.513c-4.289,0.258-3.807-3.349-4.7-5.915c-4.988-14.335,2.517-21.066-6.344-21.194
		c-5.713-0.082-2.484,4.141-0.477,17.05c1.351,8.689-8.776,10.437-7.229,1.19c0.871-5.208-5.072-9.702-0.931-15.35
		c1.696-2.313-0.791-4.626-3.481-5.214c-6.945-1.517-7.224,4.601-4.036,6.679c7.282,4.746,0.883,11.431,2.543,17.068
		c1.333,4.528-13.454,5.148-7.394-3.142C1282.035,982.505,1284.223,981.25,1281.118,977.267z M91.978,1418.756
		c-9.866-3.567-19.194,0.017-28.427-0.371c-18.413-0.772-7.434,38.921-10.547,65.423c-0.22,1.869,1.127,3.906,1.676,5.885
		c1.993,7.185,10.54,5.835,9.913-0.809c-0.421-4.462,1.5-7.671,5.539-7.753c3.711-0.075,3.453,4.334,4.383,7.085
		c0.796,2.355-1.179,6.613,3.648,6.19c3.806-0.333,8.092-2.213,7.634-6.464c-1.048-9.716,0.642-19.354,0.079-29.14
		C85.127,1445.789,75.104,1430.102,91.978,1418.756z M1391.044,1009.02c-4.809-11.501-63.474,5.094-108.174-5.925
		c-5.443-1.342-9.691,4.096-3.637,8.885c20.503,16.217,46.113,8.156,67.681,11.873
		C1365.079,1026.983,1377.133,1016.204,1391.044,1009.02z M171.05,1511.636c10.608,8.016,30.915,13.224,26.615,37.025
		c-2.993,16.568-9.142,30.671-28.365,36.09c-10.31,2.906-20.667,6.446-34.29,8.425c17.062,8.287,29.811,2.166,42.807-1.666
		C225.72,1577.385,222.713,1501.13,171.05,1511.636z M1244.26,517.539c7.254,20.596,15.586,38.714,28.026,54.735
		c2.394,3.084,7.825,6.709,3.07,9.97c-3.834,2.629-6.302-3.522-8.859-6.481c-14.08-16.299-23.63-35.172-31.398-55.073
		c-1.139-2.919-1.984-7.617-6.061-6.134c-3.84,1.396-1.685,5.419-0.821,8.536c7.632,27.536,24.66,49.622,41.627,71.718
		c11.069,14.415,14.259-24.302,10.182-28.603C1255.948,540.807,1260.761,520.571,1244.26,517.539z M307.208,559.507
		c22.784,17.696,182.585,55.57,202.297,47.622C441.075,595.536,373.863,578.904,307.208,559.507z M333.638,58.321
		c1.295,0.718,2.537,1.939,3.892,2.079c22.138,2.289,40.771,15.314,62.447,20.125c60.312,13.385,38.941,5.04,55.373,5.35
		c2.894,0.054,6.375-3.149,6.197-6.688c-0.214-4.243-4.23-2.524-6.843-2.887c-50.979-7.079-1.171,5.62-102.478-17.791
		C346.175,57.111,340.391,56.529,333.638,58.321z M289.756,553.333c0.562,25.751,139.509,71.062,171.375,55.811
		c-32.985-3.461-63.386-10.223-93.336-18.655C340.356,582.763,310.667,579.253,289.756,553.333z M1327.709,831.574
		c29.042,34.441,29.017,39.428,44.835,37.11c-24.253-21.83-38.66-46.921-49.616-74.742c-14.619,12.498,17.945,26.466-1.952,40.048
		c-0.151,0.103,0.15,0.782,0.138,1.189c-0.272,9.356,15.788,29.604,26.656,33.002
		C1344.943,854.974,1330.35,848.613,1327.709,831.574z M1270.539,622.231c0.832-7.684,6.212-13.054-1.26-18.343
		c-14.886-10.537-23.512-26.213-32.054-41.587c-19.683-35.424-19.992-50.576-26.676-48.015c-5.906,2.263-0.216,5.866,0.751,8.756
		C1223.508,559.531,1243.091,591.665,1270.539,622.231z M1368.43,850.215c-2.441-10.318-3.126-18.171-8.869-24.561
		c-10.539-11.726-17.673-25.732-22.802-40.253c-2.729-7.728-10.652-13.21-9.593-21.886c0.422-3.454,1.121-5.804-2.759-6.026
		c-4.781-0.274-3.22,3.445-3.094,6.156c0.563,12.121,5.129,23.194,9.888,33.978C1339.517,816.466,1345.734,836.96,1368.43,850.215z
		 M255.563,1054.766c-0.327-4.216-3.785-4.946-7.337-4.759c-72.061,3.788-79.895-4.105-80.815,2.807
		C165.925,1063.979,256.58,1067.864,255.563,1054.766z M252.089,875.99c2.452-19.258-2.093-38.634,3.084-57.68
		c0.434-1.598-0.743-3.908-2.493-3.394c-20.507,6.016-28.942-4.232-29.015,3.98c-0.226,25.488,0.297,50.956,2.091,76.389
		c0.374,5.3,9.541,3.562,7.585-0.526c-3.449-7.209-0.364-14.564-0.791-21.808c-1.046-17.783-0.342-35.668-0.342-57.63
		c4.942,13.695,10.553,8.076,14.474,4.925C253.762,838.696,247.427,857.697,252.089,875.99z M2271.571,1585.934
		c21.664,3.27,29.335-12.825,37.247-26.312c3.3-5.626,2.563-15.02-0.95-22.716c-4.446-9.742-26.17-10.135-15.531,5.837
		C2296.739,1549.351,2290.89,1573.432,2271.571,1585.934z M262.39,913.502c4.082,0.174,6.452-1.732,6.31-5.732
		c-0.306-8.64-13.178-1.491-21.886-1.848c-23.767-0.974-47.716,2.867-71.301-2.51c-3.604-0.822-7.294-0.944-8.066,3.01
		c-0.975,4.996,3.699,4.01,6.712,4.759C212.161,920.626,255.685,913.217,262.39,913.502z M1459.564,955.819
		c-2.005,0.365-3.697,0.352-5.099,0.984c-6.496,2.929-16.334-1.361-19.644,4.156c-2.784,4.641,0.537,12.999,1.303,19.695
		c0.453,3.964-4.008,11.111,5.388,9.754c7.682-1.109,18.026,0.127,19.878-9.958C1462.804,972.749,1460.341,964.336,1459.564,955.819
		z M239.713,1104.655c10.479-1.251,20.97-2.41,31.428-3.821c2.452-0.331,3.605-3.898,1.773-4.141
		c-9.24-1.226-16.147-11.888-23.124-10.557c-18.814,3.589-52.799,5.445-70.369-2.416c-2.099-0.939-4.23-1.502-5.318,0.636
		c-5.894,11.585,53.295,11.854,70.072,8.047c4.149-0.942,8.482-1.606,12.549,3.241C250.217,1097.909,244,1098.367,239.713,1104.655z
		 M1297.214,585.381c0,5.434-0.674,7.762,0.102,9.404c9.96,21.053,14.219,44.602,27.68,64.067
		c3.707,5.361,7.318,17.303,12.668,13.691c8.427-5.69-2.09-12.78-5.803-17.943c-8.352-11.614-14.474-24.633-21.429-36.843
		C1305.625,609.317,1304.174,597.963,1297.214,585.381z M540.63,607.466c-0.451-7.133,5.811-15.041,1.122-20.045
		c-8.624-9.203,2.378-21.222,0.474-30.126c-4.836-0.643-4.524,5.229-8.605,4.605c-1.363-8.922,8.548-19.952,1.858-23.001
		c-6.508-2.966-4.944,17.213-10.773,27.562c-0.674,1.196,0.381,3.665,2.496,3.239c13.291-2.68,5.694,5.44,4.324,9.026
		C526.881,590.873,535.737,598.28,540.63,607.466z M1267.517,643.469c1.462-7.622,3.935-14.454-5.194-19.987
		c-5.606-3.398-8.496-10.981-13.463-15.802c-6.696-6.498-6.885-17.478-17.609-23.992
		C1236.949,609.296,1250.814,627.129,1267.517,643.469z M1265.562,671.482c2.608-12.493,0.477-19.176-7.538-25.519
		c-10.708-8.475-15.452-22.067-23.211-33.205C1234.169,637.279,1252.55,651.256,1265.562,671.482z M1277.591,720.823
		c-8.053,9.124,17.309,47.091,23.742,57.147c1.761,2.753,2.442,6.341,6.043,7.163c1.321,0.302,7.926-4.738,0.897-12.715
		C1295.062,757.427,1284.075,740.993,1277.591,720.823z M1265.908,694.571c6.158-17.554-11.653-22.891-16.924-35.105
		c-2.093-4.851-4.359-12.015-11.422-14.874C1238.567,661.338,1252.307,685.334,1265.908,694.571z M551.383,599.828
		c-2.621,6.727-4.856,13.794,1.764,18.049c16.273,10.459,36.003,6.742,35.028-16.25c-9.124,0.997-9.954,12.498-20.513,12.681
		C555.883,614.51,554.901,607.239,551.383,599.828z M273.411,521.615c-5.719,14.434-18.645,18.917-33.667,23.539
		c13.329,7.003,21.584-0.706,30.507-4.127c0.837,5.908-5.704,8.826-3.361,15.357C280.625,546.804,274.142,534.008,273.411,521.615z
		 M517.893,453.148c1.517,0.517,3.035,1.035,4.552,1.552c9.199-25.533,20.617-50.281,27.107-76.773
		c-1.095-0.397-2.191-0.794-3.286-1.191C536.809,402.207,527.351,427.677,517.893,453.148z M238.676,874.468
		c-0.034,0-0.068,0-0.102,0c0,25.068-1.624,24.972,2.735,25.27c3.858,0.264,8.703-0.647,11.57-2.95
		c2.771-2.226-0.454-8.059-1.878-8.67c-6.516-2.795-3.865-8.269-5.195-12.652c-3.372-11.11,1.796-26.663-4.969-25.837
		C238.082,849.965,238.676,850.529,238.676,874.468z M1340.8,1053.593c-20.115-2.361-20.115-2.361-19.334,15.633
		c0.018,0.413,0.214,0.884,0.077,1.229c-4.741,11.946,5.809,9.705,11.212,11.598c3.007,1.053,7.879,0.17,6.312-4.423
		c-1.558-4.567,2.479-12.355-3.319-13.194c-5.922-0.857-1.854,5.29-1.936,8.406c-0.173,6.643-7.053,4.788-7.222,0.625
		c-0.217-5.353-1.438-11.218,0.282-15.957c2.179-6.006,6.649,2.537,10.389,0.051
		C1338.517,1056.726,1340.441,1056.892,1340.8,1053.593z M2147.914,1579.745c-2.076,7.023,5.31,9.581,7.03,8.943
		c14.278-5.291,46.428,3.007,44.756-5.821c-0.418-2.21-3.206-4.455-5.761-3.536
		C2178.605,1584.849,2163.175,1578.212,2147.914,1579.745z M1243.215,676.076c1.241,19.269,13.915,32.151,24.68,46.099
		C1271.063,700.443,1248.13,693.292,1243.215,676.076z M45.175,1484.441c4.275-14.479-0.828-28.511-0.429-42.694
		c0.058-2.074-0.774-4.293-3.4-4.234c-2.783,0.062-2.859,2.497-3.055,4.516C36.861,1456.734,37.831,1471.087,45.175,1484.441z
		 M1482.823,970.985c0-21.733,1.53-25.434-5.656-24.847c-6.338,0.517-12.068,5.214-10.729,11.239
		c1.654,7.442,0.157,15.177,2.678,23.741c8.09-8.681-0.17-19.924,6.228-27.922C1480.707,958.017,1474.586,965.41,1482.823,970.985z
		 M227.658,1102.716c-19.12-3.049-38.338-2.984-57.428-4.957C188.61,1108.674,208.427,1103.325,227.658,1102.716z M190.715,1079.867
		c17.349,5.119,31.729,3.388,45.802,4.48c2.29,0.178,4.137-1.155,3.517-3.573c-0.286-1.117-2.583-2.779-3.488-2.519
		C222.533,1082.281,208.441,1074.11,190.715,1079.867z M735.178,80.338c-19.027-3.481-38.053-6.963-57.08-10.444
		C695.892,80.969,715.841,78.748,735.178,80.338z M1290.465,780.75c-0.491,11.172,11.226,15.662,11.135,25.273
		c1.949-0.07,4.107,0.366,5.795-0.335c2.173-0.902,2.659-3.388,1.121-5.094C1302.811,794.264,1300.18,785.052,1290.465,780.75z
		 M94.834,908.788c6.424,1.515,10.035,6.952,13.967,1.508c3.892-5.389,3.719-13.015,0.45-17.575
		c-3.671-5.122-7.981,1.257-12.226,2.401c1.633,5.249,8.753,2.008,8.93,8.172C103.258,904.627,100.38,906.048,94.834,908.788z
		 M2238.714,1593.542c9.688-0.479,20.15,3.419,30.592-5.555C2256.993,1584.914,2247.644,1587.809,2238.714,1593.542z
		 M469.366,611.385c-0.189,1.229-0.378,2.458-0.566,3.688c11.531,5.155,23.948,1.778,35.679,5.013
		c0.142-1.217,0.283-2.434,0.425-3.651C493.057,614.751,481.212,613.068,469.366,611.385z M1442.065,466.724
		c2.626,8.193,4.21,14.832,11.937,17.213c2.553,0.786,5.358,4.056,7.703,1.222c3.306-3.994-1.888-5.108-3.531-7.427
		C1454.563,472.633,1450.124,468.69,1442.065,466.724z M1283.318,553.74c2.44-10.058-6.273-15.155-8.319-22.681
		c-0.373-1.372-2.639-2.365-3.998-0.74c-0.947,1.132-1.953,3.401-1.44,4.379C1273.092,541.427,1275.448,549.123,1283.318,553.74z
		 M514.974,479.841c-4.399,9.427-6.753,19.084-4.361,29.479C514.912,499.969,517.133,490.25,514.974,479.841z M232.351,991.217
		c-0.007,1.146-0.013,2.293-0.02,3.439c10.048,1.009,20.097,1.717,30.184-3.439C252.461,991.217,242.406,991.217,232.351,991.217z
		 M244.524,790.908c-2.352-0.506-4.264,1.636-3.264,3.671c1.988,4.042,0.406,10.607,6.586,11.702
		C255.251,807.593,257.862,793.776,244.524,790.908z M2223.844,1607.357c-10.431,0-20.862,0-31.292,0
		C2203.077,1611.991,2213.524,1612.656,2223.844,1607.357z M575.631,601.122c-13.658,0.947-11.617-7.818-11.848-17.089
		c-6.016,7.018-6.634,12.123-2.255,17.814C565.264,606.7,569.129,606.861,575.631,601.122z M1311.143,1078.931
		c4.697-8.158,1.292-14.893,2.964-20.984c1.271-4.628-5.418-4.648-4.946-0.386
		C1309.861,1063.875,1307.578,1070.396,1311.143,1078.931z"/>
	<path d="M2113.754,1076.023c-24.089-11.01-27.324-31.948-32.907-52.297c-8.235-30.017,32.668-33.343,22.271-53.646
		c-7.08-13.826-0.98-27.755,14.056-33.865c4.266-1.734,6.077-4.263,6.232-8.003c0.604-14.598,3.061-29.128,0.233-43.847
		c-2.118-11.023-0.583-22.565-4.556-33.455c-2.351-6.444,7.877-14.414,16.169-18.022c23.579-10.259,24.528-10.371,22.619-35.591
		c-8.866-117.116,16.934-241.546,114.875-317.613c25.163-19.543,53.338-35.692,74.298-60.52c3.051-3.614,6.388-8.579,12.208-6.802
		c5.594,1.708,5.951,7.85,7.052,12.277c8.348,33.582-73.754,54.075-125.079,124.658c-73.926,101.662-60.371,128.188-67.847,260.325
		c-1.521,26.867,5.693,12.878,39.009,25.376c5.492,2.06,8.159,6.745,8.495,13.648c1.439,29.592,4.725,32.156,34.542,30.046
		c3.67-0.26,7.479-1.737,10.943-1.108c9.554,1.733,11.573-5.043,10.587-10.977c-3.816-22.957,3.663-46.011-1.307-68.834
		c-2.18-10.015,22.421-8.127,32.446-4.708c12.017,4.099-2.369,15.025,2.465,191.966c0.421,15.395-12.191,24.637-27.205,20.273
		c-6.203-1.803-5.679-0.158-10.688-73.718c-1.121-16.463-0.219-19.862-36.273-17.987c-13.965,0.726-23.037,15.976-15.297,27.31
		c7.274,10.651,9.016,19.659-0.021,29.953c-9.897,11.273,4.043,16.485,12.583,24.256c20.372,18.535,21.312,44.873,2.488,67.99
		c-9.407,11.554-17.241,16.664-8.9,24.213c4.665,4.222,6.418,11.488,2.548,15.637c-14.071,15.081,10.946,16.809,8.052,23.054
		c-1.701,3.672-5.592,2.381-7.453,0.669c-26.664-24.522-66.872-10.159-79.571-15.541c15.438-3.289,31.077-3.934,46.779-3.911
		c3.721,0.005,7.716,0.71,11.1-0.394c10.102-3.296,13.751-18.834-1.103-17.133c-26.076,2.987-52.133,6.514-78.293,0.736
		c-0.761-0.168-1.653,0.097-2.453,0.29c-5.488,1.327-14.051-1.707-14.419,7.517c-0.33,8.266,8.471,6.207,13.077,8.1
		c5.094,2.094,11.205,1.878,19.753,5.945c-22.262-2.907-32.036,15.021-48.49,19.572c13.37,6.374,27.51,7.35,41.357,7.426
		c33.325,0.182,66.81,2.489,99.845-4.476c5.245-1.106,9.951,0.313,13.2,4.792c15.088,20.797,24.217,40.665,4.399,63.068
		c-28.344,32.042-262.13,7.419-318.143,4.261c-130.343-7.349-516.205-4.897-591.089-16.507
		c-17.905-2.775-44.995,3.813-64.012-25.821c-12.74-19.852,6.186-31.819,13.067-55.503c2.343-8.065,11.914-11.317,20.458-11.276
		c22.044,0.106,44.561-2.165,65.372,7.483c1,0.464,515.249-4.397,648.724-8.057c67.722-1.857,67.075-1.614,69.426-8.422
		C2101.319,1083.202,2105.409,1079.233,2113.754,1076.023z M2109.871,994.136c-5.653,0.189-7.703,2-2.77,6.556
		c3.68,3.398,8.612,2.171,12.954,3.067c18.76,3.872,38.401-1.394,57.459,5.638c-24.93,1.722-49.152,1.208-73.218-3.765
		c-2.37-0.49-7.042-3.869-8.062,1.212c-0.839,4.18,3.736,3.236,6.328,3.707c41.144,7.486,82.425,6.175,123.707,1.544
		c2.347-0.263,7.078-0.749,5.862-6.443c-12.595-1.364-25.177,5.318-37.721,1.39c7.006-7.224,18.173-0.571,25.547-7.268
		c-2.3-4-5.028-2.163-7.079-1.757c-27.364,5.42-54.98,1.692-82.464,2.195c-7.121,0.13-15.427,1.042-20.77-6.291
		c31.011,1.754,62.003,2.593,96.318,0.451c-8.736-6.861-3.902-4.388-81.439-4.014c-3.192,0.015-7.731,0.223-7.938-3.956
		c-0.208-4.195,1.402-4.519,18.408-2.133c20.158,2.829,40.227,0.464,60.834,1.093c-2.261-9.988-6.989-0.657-71.607-6.863
		C2112.763,977.401,2109.255,981.845,2109.871,994.136z M1318.62,1159.252c13.244,1.435,24.196,10.944,38.05,10.064
		c50.853-3.23,796.647,24.442,801.275,24.521c24.198,0.415,48.559-0.836,71.841-8.76c-0.513-4.36-3.888-4.86-5.614-4.34
		c-16.024,4.827-104.263,3.623-116.79,2.917c-45.099-2.539-39.694-47.271-10.463-59.034c6.542-2.633,16.752-5.039,14.724-13.501
		c-1.731-7.223-11.681-4.165-17.806-3.559c-86.474,8.566-698.556,8.755-702.002,8.599c-31.62-1.433,14.723,44.382-41.031,43.149
		C1340.225,1159.075,1329.776,1155.982,1318.62,1159.252z M2196.348,866.852c0,84.747-0.935,77.07,1.46,77.718
		c7.49,2.028,14.693-4.354,16.469-12.195c1.769-7.809-1.517-15.016,0.196-23.159c2.578-12.258,0.704-25.434,0.902-38.217
		c0.122-7.878-7.229-3.105-9.782-6.087c-2.49-2.909,1.242-9.681-6.057-7.723c-38.18,10.241-61.509-13.165-66.398,16.201
		c-3.305,19.854,2.419,40.124-3.321,59.725c-2.434,8.311,1.875,10.153,8.78,10.222c50.807,0.51,52.22,2.433,52.153-4.843
		c-0.174-18.955,1.889-38.242-1.104-56.721C2188.251,873.169,2190.048,870.73,2196.348,866.852z M1328.054,1176.313
		c21.069,11.608,63.591,8.558,90.39,9.515c308.627,11.018,236.093,3.998,347.408,7.641c366.012,11.978,424.666,27.48,472.668,6.128
		c-1.623-3.317-4.03-3.162-5.722-2.712c-65.934,17.532-265.147-2.568-266.216-2.648c-76.316-5.707-600.454-14.888-601.454-14.904
		C1352.732,1179.142,1340.999,1172.359,1328.054,1176.313z M2086.055,1167.096c4.479,16.494,136.067,6.947,146.801,7.152
		c2.467,0.047,5.15,0.141,6.737-2.201c5.168-7.628,4.969-17.239,3.481-24.742c-3.055-15.401-33.003,6.699-145.007-6.564
		c-5.007-0.593-10.711-2.868-12.932,3.054c-2.038,5.434-3.63,12.053,3.143,18.213c0.625-13.512,0.027-17.025,3.621-16.907
		c5.923,0.194,4.974,12.633,4.312,18.487C2095.448,1170.341,2089.247,1164.381,2086.055,1167.096z M2122.584,1063.864
		c-3.534,1.594-9.051,1.834-3.528,8.028c4.327,4.852,10.411,4.505,14.963,7.666c22.015,15.29,44.891,8.291,66.71,1.115
		c17.23-5.666,27.177-21.49,37.641-35.611c2.125-2.867,3.416-6.571-0.427-8.514c-4.821-2.438-4.846,2.668-6.205,5.267
		c-8.292,15.864-21.368,26.701-36.821,34.992c-19.661,10.549-23.563-11.963-42.751-6.397c-4.251,1.233-8.246,1.254-8.17-3.51
		c0.093-5.789,4.768-2.166,7.521-1.958c12.46,0.941,14.105,0.558,20.506-5.312c-15.895-4.525-57.959-2.871-63.127,3.901
		C2114.106,1062.307,2118.498,1060.022,2122.584,1063.864z M2116.8,1030.677c1.159-0.335,2.321-0.972,3.476-0.961
		c37.009,0.35,74.051,2.493,110.957-2.331c2.569-0.336,6.297,1.833,6.153-3.176c-0.123-4.269-3.625-4.068-6.381-3.77
		c-39.624,4.29,10.673,1.218-111.739,2.535c-5.781,0.062-11.863-5.673-17.466,0.481c1.514,4.319,6.953,3.047,9.244,5.959
		c-2.99,6.374-9.807-1.533-12.792,4.131c28.517,7.555,100.798,9.7,113.271,2.461
		C2179.193,1033.429,2147.985,1037.837,2116.8,1030.677z M2134.917,949.112c-8.611-0.813-17.46-1.602-17.796,5.208
		c-0.39,7.917,8.315,5.302,45.234,8.735c1.23,0.114,6.163-1.598,3.15,2.873c-1.694,2.514-3.135,4.127,0.612,5.184
		c2.781,0.784,7.211,0.41,7.691-1.993c3.375-16.914,45.528-0.643,43.909-17.165c-0.579-5.911-5.675-3.356-8.834-3.564
		C2183.41,946.708,2157.985,953.823,2134.917,949.112z M1312.717,1138.959c2.942-9.929,9.312-4.328,14.211-4.461
		c5.311-0.144,6.799,4.031,8.606,7.585c1.36,2.674-1.349,6.259-2.666,4.508c-5.079-6.75-9.26-3.895-14.558-0.918
		c-1.132,0.636-4.565-2.516-4.665,1.883c-0.144,6.317,9.092,3.385,19.824,5.723c15.932,3.472,1.549-15.032,10.586-15.553
		c3.938-0.227,4.907,4.911,4.274,8.746c-0.518,3.139-1.335,5.738,3.428,5.611c5.588-0.15,2.205-3.238,2.211-5.541
		c0.007-2.969-2.043-7.986,1.922-8.365c4.245-0.406,5.687,3.688,3.938,7.984c-0.698,1.714-2.679,3.837,0.045,5.19
		c6.195,3.076,10.87-4.401,7.974-6.189c-7.892-4.872,2.588-9.2,0.176-14.087C1316.304,1138.548,1308.669,1113.152,1312.717,1138.959
		z M1318.053,1109.917c-6.867,0.724-7.764,7.975-2.011,9.479c14.516,3.795,53.83,5.883,52.022-6.883
		c-0.793-5.601-6.32-5.22-10.831-5.214C1316.81,1107.35,1340.901,1107.508,1318.053,1109.917z M2192.278,1048.937
		c-13.602-7.051-21.304-2.201-64.925-3.861c-20.854-0.794-20.847-0.964-31.541,7.121
		C2129.166,1047.626,2159.409,1057.739,2192.278,1048.937z M2210.179,845.607c-7.73-3.158-13.735-8.908-21.126-8.527
		c-5.999,0.31-15.274-6.034-16.948,0.203c-1.759,6.552,9.77,4.178,14.411,8.404c-7.135,11.76-18.502-1.35-26.382,4.591
		C2167.768,858.487,2196.966,856.226,2210.179,845.607z M2298.219,907.622c-0.412-4.569-5.715-3.652-9.032-4.782
		c-2.098-0.714-4.18-2.775-6.377,0.141c-5.552,7.371-0.751,19.623,8.415,20.31c2.623,0.197,7.465,6.034,8.344-1.352
		c1.354-11.373-14.83,2.253-14.266-8.698C2285.92,901.238,2299.071,917.073,2298.219,907.622z M2165.485,835.919
		c-10.832-3.441-17.573-0.171-24.052,3.475c-4.835,2.721-4.192,6.659-0.834,10.212c2.261,2.393,7.299,2.537,7.323,0.334
		C2148.034,839.677,2156.991,840.07,2165.485,835.919z M2219.302,965.081c-11.827-0.057-23.665-0.74-34.75,4.304
		C2196.245,968.337,2208.707,975.324,2219.302,965.081z M1318.057,1172.498c-19.578-11.214-21.245-18.224-24.895-14.145
		c-0.773,0.864-1.69,2.101-0.266,3.069C1300.529,1166.614,1307.49,1173.363,1318.057,1172.498z M2235.882,887.176
		c3.282,9.451,17.542,18.096,19.266,12.073c0.36-1.258-0.469-4.103-1.088-4.203C2247.674,894.011,2244.921,885.211,2235.882,887.176
		z M2291.232,970.14c1.447-0.556,7.849,2.808,7.948-3.188c0.105-6.266-6.145-3.243-9.634-3.604c-2.799-0.29-6.984-1.517-6.947,3.982
		C2282.636,972.788,2285.902,971.781,2291.232,970.14z M2292.121,940.44c2.654-0.184,6.674,2.309,7.194-1.882
		c0.676-5.442-4.107-5.358-7.765-5.044c-3.236,0.278-8.91-1.791-8.456,3.994C2283.55,943.323,2289.341,938.63,2292.121,940.44z
		 M2282.544,886.672c1.884,9.881,9.171,6.323,14.456,6.877c1.819,0.191,3.155-1.431,2.348-3.166
		C2297.186,885.736,2294.666,887.368,2282.544,886.672z"/>
	<path d="M284.73,109.251c-12.151-1.94-47.844-4.395-77.722,5.095c-20.86,6.626-43.749,4.824-63.499,16.2
		c-5.947,3.426-7.917-3.223-8.603-7.295c-1.199-7.124,1.161-13.042,9.351-14.503c57.242-10.213,105.256-8.146,167.889-7.486
		c15.057,0.159,29.267-12.661,32.83,6.749c0.92,5.01,18.413,9.162,15.911,15.121c-1.803,4.294-5.551,2.081-8.54,0.927
		c-3.805-1.469-7.882-2.61-11.232-4.817C323.563,107.681,304.005,107.752,284.73,109.251z"/>
	<path d="M499.283,541.189c0.564,4.817-0.967,6.683-6.261,5.09c-53.494-16.096-143.137-20.211-185.52-44.734
		c-3.195-1.849-7.401-3.427-5.014-7.783c2.213-4.038,6.222-2.383,9.886-0.933c72.07,28.519,78.627,18.921,178.473,41.99
		C493.912,535.528,500.242,534.094,499.283,541.189z"/>
	<path d="M285.431,75.527c-47.966-3.069-93.023,8.113-137.248,26.541c3.118-13.899,13.911-24.11,33.054-27.148
		c30.272-4.804,60.928-6.815,91.65-5.36C277.125,69.761,281.919,70.012,285.431,75.527z"/>
	<path d="M759.685,696.775c-0.824-13.169-25.166-34.926-21.745-75.034c0.319-3.736,1.028-9.246,5.927-8.975
		c3.326,0.184,3.518,4.983,3.029,8.39c-7.483,52.095,34.052,82.601,35.044,91.852C767.644,707.461,757.265,694.181,759.685,696.775z
		"/>
	<path d="M991.295,512.721c-13.813,1.751-26.273,6.753-41.208,4.768c-18.599-2.471-36.944-5.165-54.881-10.59
		c-3.342-1.011-8.833-0.962-7.773-5.768c0.988-4.48,6.503-2.777,9.567-2.169c11.125,2.21,46.822,18.557,90.11,10.061
		C988.657,508.72,990.37,509.002,991.295,512.721z"/>
	<path d="M446.082,464.255c-8.241,5.287-14.79,0.01-21.43-0.507c-30.568-2.38-60.908-6.486-89.876-17.364
		c-2.381-0.894-6.741-0.296-5.452-4.603c0.966-3.225,3.795-1.575,6.194-0.725C391.729,460.985,433.808,453.537,446.082,464.255z"/>
	<path d="M346.539,423.637c34.544,8.594,71.16,6.228,104.612,20.592C416.14,438.111,380.053,437.679,346.539,423.637z"/>
	<path d="M991.937,776.77c5.811,23.884,12.472,47.384,30.084,66.979C1001.674,840.809,984.32,802.393,991.937,776.77z"/>
	<path d="M993.294,833.935c-26.109-12.508-33.872-56.646-22.417-57.69c3.662-0.334,3.388,3.203,3.487,5.289
		C975.285,800.879,982.517,817.909,993.294,833.935z"/>
	<path d="M422.69,544.854c29.291-2.025,56.023,8.601,83.259,16.737C477.395,559.971,450.707,549.125,422.69,544.854z"/>
	<path d="M2115.887,1131.105c33.771-1.993,67.744,0.14,101.638-2.5C2183.774,1132.753,2150.035,1136.993,2115.887,1131.105z"/>
	<path d="M352.7,375.249c23.424,6.716,49.034,3.719,71.297,15.596C399.895,387.14,374.344,389.871,352.7,375.249z"/>
	<path d="M990.069,500.804c-21.342,6.233-49.86-0.611-70.71-7.937c-5.232-1.839-3.019-8.616,2.78-6.239
		C943.882,495.541,966.534,499.868,990.069,500.804z"/>
	<path d="M629.175,609.283c-16.272-10.715-21.117-29.089-25.384-53.246c-1.216-6.883,6.459-9.063,7.264-1.944
		C613.265,573.622,618.485,592.165,629.175,609.283z"/>
	<path d="M710.8,255.988c10.889-7.617,37.383,0.221,47.568-0.831c2.917-0.301,7.083-0.429,6.719,4.676
		c-0.327,4.577-3.917,2.994-6.493,3.19C742.221,264.271,727.155,256.286,710.8,255.988z"/>
	<path d="M1065.622,166.916c-17.473,0.021-46.251,8.992-46.488,0.589c-0.032-1.145,1.832-3.244,3.014-3.386
		C1036.704,162.366,1051.511,155.68,1065.622,166.916z"/>
	<path d="M594.343,576.825c-11.377-15.569-16.357-32.793-20.203-50.466c-0.6-2.758,0.792-5.117,3.6-5.498
		c9.277-1.258,2.599,8.313,13.119,41.865C592.17,566.907,598.526,569.948,594.343,576.825z"/>
	<path d="M949.341,777.635c7.706,16.434,6.086,34.284,18.225,47.306C951.481,818.06,943.488,796.885,949.341,777.635z"/>
	<path d="M1094.185,878.002c-20.855-12.647-16.777-45.383-8.472-43.337C1093.451,836.571,1082.077,853.206,1094.185,878.002z"/>
	<path d="M1380.676,436.659c16.163-2.245,37.534,10.995,43.232,26.312C1410.104,453.346,1396.865,442.764,1380.676,436.659z"/>
	<path d="M941.766,810.15c-22.395-1.671-28.673-18.268-34.974-34.614c-0.932-2.417-4.241-6.705,0.793-8.072
		c3.937-1.07,3.919,3.265,4.282,5.954c1.13,8.381,6.279,15.008,9.66,22.39c2.096,4.575,2.777,12.219,11.093,3.713
		C935.131,796.952,940.093,804.939,941.766,810.15z"/>
	<path d="M1451.423,838.814c8.091,13.649-0.895,26.889,2.734,41.642C1442.454,869.812,1444.599,860.901,1451.423,838.814z"/>
	<path d="M1406.028,428.479c-13.654-6.767-27.256-13.207-44.36-16.526C1375.414,406.668,1396.127,414.619,1406.028,428.479z"/>
	<path d="M1409.878,352.966c15.011,3.065,25.86,13.688,38.382,21.274c-0.688,1.243-1.377,2.486-2.065,3.729
		c-12.646-7.341-25.292-14.683-37.938-22.024C1408.797,354.952,1409.338,353.959,1409.878,352.966z"/>
	<path d="M456.461,490.985c-18.423-0.349-36.46-3.883-54.314-8.551C421.009,479.828,438.707,485.187,456.461,490.985z"/>
	<path d="M1124.353,898.205c-7.291-8.967-3.375-19.733-3.538-29.798c-0.039-2.392,6.934-4.288,7.009,2.292
		c0.104,9.012,0.045,18.025,0.045,27.038C1126.697,897.893,1125.525,898.049,1124.353,898.205z"/>
	<path d="M1019.051,183.838c-9.472,0.303-17.083-5.132-25.286-1.772c-5.333,2.184-7.191-8.067,0.678-8.526
		C1003.688,173.001,1012.058,174.675,1019.051,183.838z"/>
	<path d="M662.442,608.636c-11.683-37.084,3.234-35.415,3.234-27.157c0,8.974,0,17.949,0,26.923
		C664.598,608.48,663.52,608.558,662.442,608.636z"/>
	<path d="M1424.055,400.639c13.631-2.117,23.446,4.141,29.948,19.759C1441.946,414.351,1435.317,403.775,1424.055,400.639z"/>
	<path d="M936.077,265.14c-3.024-1.041-6.976-1.169-6.915-5.598c0.126-9.048,17.723-12.634,16.919-3.6
		C945.579,261.573,941.4,264.177,936.077,265.14z"/>
	<path d="M1064.157,848.985c-11.248-9.551-10.986-17.503,1.679-28.5C1062.945,830.952,1062.409,839.837,1064.157,848.985z"/>
	<path d="M1424.496,379.654c12.453,1.284,20.717,7.885,26.44,18.005C1440.334,394.113,1431.61,387.842,1424.496,379.654z"/>
	<path d="M864.075,258.68c-8.633,13.428-19.268,9.464-17.006,3.89C850.717,253.58,861.987,248.383,864.075,258.68z"/>
	<path d="M1460.207,630.924c9.622,4.463,13.145,13.075,15.811,22.271C1466.104,648.931,1463.763,639.515,1460.207,630.924z"/>
	<path d="M830.603,718.961c-1.957,0.754-4.563,1.458-5.46-0.628c-3.854-8.967-6.313-18.181-2.621-27.785
		c1.133,10.071,7.607,18.665,7.666,28.776C830.21,719.302,830.603,718.961,830.603,718.961z"/>
	<path d="M871.51,727.811c4.729,7.714,7.709,15.789,6.322,25.003C870.623,745.937,868.743,737.489,871.51,727.811z"/>
	<path d="M886.009,251.93c-5.801,5.307-4.614,14.9-14.103,13.374c-4.039-0.65-0.783-3.721-0.61-5.824
		C871.973,251.246,876.229,248.959,886.009,251.93z"/>
	<path d="M903.978,255.578c-5.334,11.336-16.811,10.988-13.853,4.737c2.094-4.426,4.092-9.193,9.901-9.93
		C903.422,249.954,904.295,251.999,903.978,255.578z"/>
	<path d="M369.607,113.394c9.925,2.547,19.849,5.093,30.719,7.882C391.929,125.474,383.498,123.596,369.607,113.394z"/>
	<path d="M566.011,542.787c-4.382-9.984-13.044-18.5-11.442-33.565C562.541,521.006,563.457,532.177,566.011,542.787z"/>
	<path d="M1436.767,421.33c10.495,3.934,14.958,10.14,18.959,16.85C1447.251,436.343,1441.238,431.825,1436.767,421.33z"/>
	<path d="M798.151,257.037c2.935,0.282,6.447,0.474,6.482,4.923c0.039,4.982-3.773,5.614-7.54,5.765
		c-3.313,0.132-7.209-0.219-7.069-4.486C790.164,258.963,794.104,257.779,798.151,257.037z"/>
	<path d="M854.132,740.018c-7.202-6.86-10.117-15.163-7.491-25.385c4.095,7.722,7.631,15.646,8.31,24.657
		C854.952,739.29,854.132,740.018,854.132,740.018z"/>
	<path d="M2154.298,1119.69c12.632,0,25.265,0,37.897,0c0.037,0.569,0.075,1.138,0.112,1.707c-12.64,0-25.279,0-37.918,0
		C2154.359,1120.828,2154.329,1120.259,2154.298,1119.69z"/>
	<path d="M1482.231,692.853c-9.119-3.919-9.502-11.943-13.461-21.721C1477.841,677.916,1482.505,683.432,1482.231,692.853z"/>
	<path d="M1367.695,1459.734c0,7.95-0.678,15.978,0.221,23.824c1.375,11.996-13.755,14.219-13.511,0.51
		c0.949-53.181-4.783-56.62,4.339-56.449c9.863,0.185,7.674,6.45,7.674,32.087
		C1366.844,1459.716,1367.27,1459.725,1367.695,1459.734z"/>
	<path d="M1413.338,1459.357c0,27.855,1.873,32.431-6.987,32.435c-11.859,0.005-0.287-24.446-7.72-58.735
		c-1.001-4.616,2.566-5.731,5.959-5.937c11.038-0.67,8.622,4.462,8.622,32.238
		C1413.254,1459.357,1413.296,1459.357,1413.338,1459.357z"/>
	<path d="M324.934,1460.5c-0.069,4.205,2.94,38.012-5.323,36.87c-8.869-1.224-3.597-37.114-8.671-62.915
		c-1.526-7.759,13.198-10.058,13.858,1.376C325.27,1444.029,324.934,1452.274,324.934,1460.5z"/>
	<path d="M1151.897,1490.656c0-62.154-2.152-60.16,5.208-60.616c12.426-0.769,5.789,8.151,9.823,48.493
		C1167.714,1486.384,1165.786,1495.913,1151.897,1490.656z"/>
	<path d="M1547.439,1466.439c0,18.487,1.81,25.309-6.873,25.368c-4.698,0.032-5.499-3.829-5.609-7.88
		c-1.594-58.908-3.846-56.633,2.779-56.433c4.87,0.147,8.299,1.659,7.823,7.032
		C1544.538,1446.079,1549.261,1457.286,1547.439,1466.439z"/>
	<path d="M1467.873,1457.772c0-28.234-1.146-30.565,3.694-31.405c12.968-2.25,7.783,36.233,8.982,59.653
		c0.213,4.152-3.634,3.577-6.478,3.63c-7.576,0.139-5.913-3.344-5.913-31.88C1468.063,1457.771,1467.968,1457.771,1467.873,1457.772
		z"/>
	<path d="M1669.183,1434.41c-0.072-3.485-1.256-8.101,4.24-8.704c5.411-0.593,7.244,3.482,7.72,7.758
		c3.458,31.039,0.5,37.512,1.398,47.656c0.257,2.908,2.155,8.321-4.209,8.104c-4.08-0.139-7.072-2-6.681-6.929
		C1672.485,1471.762,1669.36,1442.97,1669.183,1434.41z"/>
	<path d="M1191.63,1431.377c-4.188,6.922-2.974,14.702-1.319,21.303c3.026,12.069-1.746,23.563-0.35,35.316
		c0.471,3.968-2.516,4.631-5.686,4.511c-3.834-0.144-4.524-2.663-4.537-5.876c-0.161-37.308-0.292-38.486-1.418-42.944
		C1175.495,1432.502,1178.617,1429.73,1191.63,1431.377z"/>
	<path d="M602.014,1455.372c-3.551,16.613,8.183,40.941-3.502,39.318c-2.842-0.395-7.308,1.386-6.95-4.231
		c2.844-44.683-8.883-55.269,0.435-57.665c3.334-0.858,6.548-0.031,8.943,2.751c1.828,2.123,1.112,4.652,1.086,7.082
		C601.981,1446.741,602.014,1450.855,602.014,1455.372z"/>
	<path d="M806.47,1440.558c-0.869-4.412,1.642-6.394,4.887-7.194c4.37-1.078,5.675,2.278,5.95,5.803
		c4.278,54.851,6.295,55.357-4.375,55.908c-6.465,0.334-4.486-4.008-4.487-7.349C808.441,1471.484,808.96,1453.206,806.47,1440.558z
		"/>
	<path d="M1569.958,1483.875c0.016,3.388-0.083,7.295-4.366,7.29c-3.178-0.004-5.857-1.947-6.007-6.327
		c-1.91-55.754-4.814-56.338,1.918-57.945C1571.245,1424.568,1569.76,1442.722,1569.958,1483.875z"/>
	<path d="M454.716,1466.023c1.695,6.274-3.334,14.234-0.996,22.545c2.194,7.798-12.546,8.558-11.078-0.645
		c6.47-40.549-9.79-57.479,2.797-57.731C453.676,1430.028,452.239,1435.3,454.716,1466.023z"/>
	<path d="M1279.16,1451.353c0,38.663,1.601,42.886-4.899,42.909c-9.925,0.034-2.099-6.831-7.234-60.161
		c-0.346-3.59,2.172-3.782,4.771-3.977c9.07-0.682,7.213,6.557,7.213,21.228C1279.061,1451.352,1279.111,1451.353,1279.16,1451.353z
		"/>
	<path d="M689.147,1462.575c0,8.217-0.604,16.495,0.229,24.626c0.493,4.808-0.182,7.041-5.095,7.398
		c-8.791,0.638-5.297-6.692-6.024-28.023c-0.25-7.342,0.362-14.669-2.162-21.98c-1.604-4.647-0.559-10.858,5.548-11.576
		c7.785-0.915,6.438,6.389,6.438,29.547C688.435,1462.571,688.791,1462.573,689.147,1462.575z"/>
	<path d="M1257.351,1463.362c0,29.12,1.11,29.449-4.039,29.626c-13.931,0.479-1.289-27.93-8.407-58.584
		c-1.316-5.666,11.473-7.465,11.7,1.691c0.225,9.084,0.067,18.177,0.067,27.266
		C1256.898,1463.361,1257.125,1463.362,1257.351,1463.362z"/>
	<path d="M1503.262,1464.797c-0.166,5.747-2.234,11.33-0.774,17.164c0.935,3.734,0.2,7.477-5.228,7.672
		c-5.422,0.195-4.337-3.693-4.474-6.75c-0.736-16.359,1.123-32.832-2.417-49.078c-2.118-9.717,9.03-11.993,9.901-0.788
		C1501.094,1443.624,1502.243,1454.205,1503.262,1464.797z"/>
	<path d="M1455.948,1485.061c-0.2,2.069,0.94,5.485-2.869,5.402c-7.193-0.156-5.949-10.399-5.764-26.414
		c0.301-26.093-5.941-38.47,3.394-38.571c5.434-0.059,5.097,4.543,4.958,8.119
		C1455.06,1449.111,1459.657,1446.649,1455.948,1485.061z"/>
	<path d="M732.807,1490.826c-0.008,2.773,0.85,6.132-3.699,6.172c-4.062,0.036-6.735-2.315-6.059-6.061
		c4.572-25.324-9.734-55.823,1.157-57.762c5.913-1.053,5.575,4.665,6.601,8.409C732.539,1447.904,732.92,1452.507,732.807,1490.826z
		"/>
	<path d="M402.355,1471.616c2.757-17.543-10.297-40.638,2.38-41.604c5.969-0.455,5.041,3.728,5.219,7.328
		c2.833,57.285,4.466,56.596-2.232,56.99C400.998,1494.727,402.355,1491.637,402.355,1471.616z"/>
	<path d="M346.017,1460.596c0,29.264,1.084,33.214-4.262,33.702c-10.008,0.913,1.117-15.288-7.958-57.719
		c-2.361-11.037,12.819-12.455,12.656-0.605c-0.113,8.205-0.031,16.412-0.031,24.619
		C346.287,1460.595,346.152,1460.595,346.017,1460.596z"/>
	<path d="M1423.436,1435.097c-1.024-3.891-0.735-9.132,4.868-9.447c5.213-0.293,4.805,4.582,4.924,8.199
		c0.543,16.486,7.105,55.798-1.956,56.333c-4.968,0.293-6.049-2.85-5.898-7.196
		C1425.786,1471.132,1426.399,1446.353,1423.436,1435.097z"/>
	<path d="M944.904,1464.682c0,26.819,1.419,28.416-3.749,30.165c-1.844,0.624-3.695,2.103-5.595,0.132
		c-2.369-2.457-1.803-5.343-0.901-8.094c6.8-20.745-9.892-53.125,3.501-54.122c7.437-0.553,5.74,2.034,5.74,31.915
		C944.234,1464.679,944.569,1464.681,944.904,1464.682z"/>
	<path d="M1579.974,1438.731c-1.565-4.74-0.687-11.006,6.296-10.648c6.501,0.333,3.452,6.438,3.388,9.835
		c-0.268,14.42,4.139,28.543,2.468,43.022c-0.443,3.835,1.362,8.864-4.955,9.351c-7.249,0.559-4.699-5.109-4.918-8.584
		C1581.571,1470.871,1583.394,1449.091,1579.974,1438.731z"/>
	<path d="M850.131,1451.021c-0.844-15.414-2.385-18.405,4.588-18.455c6.74-0.048,3.723,0.427,6.78,55.389
		c0.209,3.755,0.594,6.75-4.313,6.719c-6.298-0.04-4.629-1.037-6.813-43.666C850.293,1451.013,850.212,1451.017,850.131,1451.021z"
		/>
	<path d="M965.395,1446.635c3.066,11.65,0.518,26.317,0.64,40.953c0.03,3.614,0.549,7.069-4.293,6.848
		c-5.36-0.245-3.224-4.016-3.156-7.246c1.108-52.441-9.872-55.252,1.478-55.644C968.496,1431.255,965.312,1438.801,965.395,1446.635
		z"/>
	<path d="M1072.842,1444.349c-4.103,13.643,2.829,27.815-0.646,41.873c-0.59,2.386,1.964,5.619-2.134,6.925
		c-2.129,0.678-4.145-0.026-5.646-1.589c-4.358-4.538,1.435-3.596,2.748-5.207c1.633-2.003-0.455-3.544-1.182-5.343
		c-5.765-14.267-1.843-29.784-5.503-44.389C1058.622,1429.216,1074.711,1434.209,1072.842,1444.349z"/>
	<path d="M1522.681,1486.328c0.003,7.525-7.645,5.766-7.894,0.801c-3.074-61.354-3.246-60.183,1.561-59.781
		C1524.092,1427.995,1522.666,1445.925,1522.681,1486.328z"/>
	<path d="M1313.578,1466.639c-2.162-31.507-3.835-37.364,1.406-37.535c8.033-0.263,6.573,4.565,6.951,57.801
		c0.017,2.349-0.027,5.038-3.632,5.25c-5.553,0.325-4.34-2.215-4.34-25.508C1313.834,1466.644,1313.706,1466.642,1313.578,1466.639z
		"/>
	<path d="M568.841,1440.518c-3.414-10.235,8.996-10.291,9.588-1.796c3.718,53.415,4.369,55.907-2.018,56.186
		c-4.483,0.196-5.22-2.619-5.088-6.436C571.357,1487.471,572.271,1450.802,568.841,1440.518z"/>
	<path d="M642.554,1443.672c3.258,14.934,2.956,27.136,3.239,39.293c0.087,3.747,1.499,9.363-4.992,9.025
		c-9.6-0.499-1.708-25.02-6.186-43.839c-1.024-4.302-2.994-8.911,0.925-12.547c1.108-1.027,4.267-0.893,5.91-0.1
		C646.627,1438.003,642.089,1443.015,642.554,1443.672z"/>
	<path d="M367.854,1475.199c-2.126,5.295,3.616,15.528-4.015,15.844c-8.971,0.371-3.16-9.78-4.029-14.899
		c-2.079-12.253-1.442-24.9-4.552-37.144c-1.156-4.55-0.653-10.362,5.174-10.514c5.65-0.147,5.409,4.778,5.378,9.883
		C365.737,1450.591,367.076,1462.82,367.854,1475.199z"/>
	<path d="M536.665,1463.51c-3.48,7.78,9.039,32.727-2.662,33.259c-11.757,0.534,1.82-18.176-7.196-57.362
		c-0.697-3.031-0.796-6.704,4.402-6.883C538.254,1432.281,536.665,1435.327,536.665,1463.51z"/>
	<path d="M303.529,1476.529c-2.209,5.342,3.304,14.665-4.655,14.932c-10.431,0.35-5.702-11.568-4.464-14.246
		c6.396-13.849-5.06-25.144-3.718-37.906c0.458-4.353-1.171-10.573,5.079-10.712
		C301.813,1428.461,299.929,1428.471,303.529,1476.529z"/>
	<path d="M559.312,1490.435c-0.068,3.007-1.569,5.949-4.923,5.649c-2.953-0.264-2.972-3.299-3.084-5.867
		c-2.573-59.272-3.934-56.991,0.8-57.347C559.667,1432.301,560.143,1453.673,559.312,1490.435z"/>
	<path d="M464.781,1477.678c1.288-40.588-6.812-43.155,0.797-44.738c6.606-1.375,5.679,3.118,8.875,57.85
		c0.15,2.562-0.389,5.343-3.362,5.729c-2.899,0.376-4.09-2.59-5.257-4.561C462.91,1487.015,465.736,1481.458,464.781,1477.678z"/>
	<path d="M752.634,1473.822c1.608,20.001,3.299,22.932-1.558,23.538c-10.663,1.328-2.668-39.382-7.991-57.106
		c-0.803-2.675-1.881-7.073,3.137-7.756c4.901-0.667,6.696,2.464,6.361,6.787C751.698,1450.732,755.077,1462.127,752.634,1473.822z"
		/>
	<path d="M881.278,1465.733c1.107,25.219,2.559,29.196-3.636,28.824c-3.769-0.226-5.33-2.851-4.911-5.757
		c2.331-16.141-0.13-32.143-0.745-48.205c-0.101-2.635-2.403-7.51,2.977-7.651c8.884-0.233,6.829,8.12,6.829,32.77
		C881.621,1465.722,881.449,1465.727,881.278,1465.733z"/>
	<path d="M667.242,1476.997c0.288,1.506,0.922,2.801,0.684,3.909c-1.209,5.616,1.048,15.355-6.198,15.114
		c-6.828-0.227-3.126-9.411-3.676-14.68c-1.344-12.863,1.458-25.919-2.057-38.759c-0.872-3.185-1.38-8.804,3.442-9.095
		c4.879-0.294,3.999,4.963,4.394,8.526C665.135,1453.759,667.648,1465.384,667.242,1476.997z"/>
	<path d="M829.416,1468.364c4.298-8.722,0.441-16.441-1.496-24.144c-1.086-4.321,1.135-7.139,2.922-10.153
		c1.914-3.229,10.081-1.579,8.37,9.306c-6.139,39.056,7.444,51.716-3.38,51.406c-5.435-0.155-3.151-4.719-3.399-7.563
		C831.869,1480.718,832.723,1474.045,829.416,1468.364z"/>
	<path d="M1213.947,1486.426c0.819,3.39,0.445,5.761-3.6,5.927c-12.235,0.503-0.555-14.294-7.998-56.028
		c-1.214-6.809,9.858-8.849,10.202-0.282C1213.563,1461.316,1210.688,1472.931,1213.947,1486.426z"/>
	<path d="M988.895,1464.909c0.65,10.155-2.452,16.866-0.029,23.947c2.617,7.646-11.963,8.177-10.011,0.098
		c6.061-25.097-7.589-56.032,3.392-56.432C986.996,1432.349,985.242,1432.706,988.895,1464.909z"/>
	<path d="M891.988,1440.784c-0.771-2.401-2.062-7.138,2.853-8.005c4.859-0.857,6.652,2.553,6.711,6.671
		c0.737,51.386,1.586,54.431-3.691,54.356C889.526,1493.688,897.987,1459.463,891.988,1440.784z"/>
	<path d="M785.263,1441.131c-0.866-3.215,0.004-7.521,3.989-7.58c3.708-0.055,2.263,4.261,3.112,6.781
		c5.651,16.774-0.434,34.447,4.271,51.243c1.766,6.306-9.304,7.413-9.534-0.087C786.694,1478.197,787.798,1450.543,785.263,1441.131
		z"/>
	<path d="M184.35,1433.906c-0.594-2.54-1.615-6.327,2.636-6.785c3.589-0.387,7.494,2.024,6.508,5.569
		c-6.873,24.691,12.371,58.803-4.116,57.736C182.279,1489.967,192.291,1467.871,184.35,1433.906z"/>
	<path d="M773.553,1455.292c-3.201,13.621,7.433,39.686-2.773,39.307c-7.495-0.278-0.292-3.606-5.56-55.185
		c-0.245-2.399-1.552-6.486,3.242-6.379C773.593,1433.15,772.666,1438.792,773.553,1455.292z"/>
	<path d="M1022.585,1481.203c-0.499-11.698,1.226-23.684-1.873-35.603c-0.769-2.957-2.55-9.587,3.446-10.045
		c7.021-0.537,3.895,5.916,4.031,9.247c0.519,12.664,3.32,25.367,0.124,38.023c-0.814,3.224,2.842,9.33-2.12,9.235
		C1020.196,1491.946,1021.103,1486.01,1022.585,1481.203z"/>
	<path d="M1117.773,1459.849c0.983,11.917,0.853,14.12-3.504,13.922c-5.673-0.258-3.355-6.717-3.615-11.171
		c-1.043-17.89-9.186-32.402,1.64-31.096c4.609,0.556,5.697,2.519,3.635,7.547C1112.998,1446.2,1120.084,1453.211,1117.773,1459.849
		z"/>
	<path d="M1129.811,1462.004c1.643-9.409,3.537-16.555,0.371-23.881c-2.539-5.875,6.956-8.258,7.401-0.826
		c2.28,38.015,3.658,39.163-0.64,39.999c-3.362,0.654-4.349-1.457-4.518-4.188
		C1132.147,1468.604,1128.821,1464.597,1129.811,1462.004z"/>
	<path d="M1090.449,1432.656c3.325-0.125,5.802,1.064,4.563,4.153c-5.511,13.741,6.264,35.031-3.783,35.122
		c-5.387,0.049-2.889-4.612-3.297-7.426c-1.167-8.043-2.316-16.089-3.41-24.142
		C1083.872,1435.577,1084.915,1432.067,1090.449,1432.656z"/>
	<path d="M703.879,1455.24c12.215,8.912,1.993,14.141,6.681,32.203c0.758,2.92,2.044,7.281-2.714,7.809
		C697.973,1496.349,702.091,1471.031,703.879,1455.24z"/>
	<path d="M917.145,1471.902c-7.737,0.194,1.618-21.882-4.838-34.157c-2.132-4.054,9.136-9.325,9.186-0.658
		C921.578,1451.775,922.11,1471.777,917.145,1471.902z"/>
	<path d="M431.516,1450.15c-0.509,1.016-1.929,6.652-3.645,6.744c-5.175,0.276-5.84-4.516-5.514-8.77
		c0.64-8.368-6.833-16.725,2.058-17.885C430.969,1429.384,429.795,1432.558,431.516,1450.15z"/>
	<path d="M1048.626,1450.326c0.912,4.753-0.547,9.289,1.382,13.703c4.01,9.172-10.061,10.373-7.222,1.043
		c5.276-17.34-8.626-30.915,2.075-31.427c5.344-0.256,3.815,5.436,4.52,8.582
		C1049.969,1444.851,1048.914,1447.842,1048.626,1450.326z"/>
	<path d="M1003.984,1463.309c-5.002-8.057-1.579-17.719-4.882-26.154c-0.392-1,2.997-7.529,7.646-2.431
		c3.976,4.36,2.121,23.944-2.799,28.565L1003.984,1463.309z"/>
	<path d="M486.495,1482.571c0.504-11.16-0.313-16.783,4.855-16.474c3.119,0.186,2.862,3.423,3.035,5.856
		c1.078,15.094,3.081,23.137-4.137,22.66c-4.412-0.292-3.287-4.074-3.658-6.579C486.174,1485.219,486.495,1482.296,486.495,1482.571
		z"/>
	<path d="M1003.949,1463.29c7.499,8.853,3.801,19.442,4.422,29.335c0.339,5.404-8.247,2.395-6.905-0.579
		c4.213-9.333-3.642-19.657,2.522-28.736C1003.984,1463.309,1003.949,1463.29,1003.949,1463.29z"/>
	<path d="M708.477,1445.236c-0.33,3.23,0.822,8.269-4.006,7.157c-6.301-1.451-4.564-8.525-6.17-13.12
		c-1.173-3.355,1.912-5.757,4.827-5.406C710.602,1434.767,706.879,1441.437,708.477,1445.236z"/>
	<path d="M426.426,1087.504c19.935,49.011-44.503,51.97-58.514,36.269c-12.941-14.502-4.125-42.941,14.552-46.881
		C399.258,1073.348,419.858,1071.358,426.426,1087.504z M393.361,1085.566c5.573,9.763,12.955,14.857,9.519,16.969
		c-11.738,7.219-14.285-25.978-26.656-14.451c-16.457,15.334,20.024,35.503,35.859,17.484
		C422.805,1093.368,405.289,1082.105,393.361,1085.566z"/>
	<path d="M2013.935,1470.161c0,21.986,1.622,25.881-5.628,25.092c-12.14-1.32-8.341,4.853-11.551-58.255
		c-0.216-4.255-0.865-8.912,5.089-9.33c5.787-0.406,9.827,2.738,9.797,8.631C2011.577,1448.682,2016.474,1460.773,2013.935,1470.161
		z"/>
	<path d="M2134.742,1485.998c1.336,6.057-1.437,10.859-9.27,11.277c-9.325,0.498-6.766-5.945-7.07-10.751
		c-1.01-15.977,1.711-32.079-1.833-47.993c-1.537-6.9,2.65-8.481,8.584-8.502c5.554-0.02,9.723,0.148,8.704,7.885
		C2133.209,1442.836,2133.767,1481.58,2134.742,1485.998z"/>
	<path d="M1972.266,1469.693c-2.677-39.36-4.621-44.121,2.12-43.482c12.726,1.207,9.64-1.872,13.341,60.428
		c0.318,5.348-1.306,8.411-7.717,8.229c-10.123-0.288-8.281-4.555-8.281-25.164
		C1971.908,1469.701,1972.087,1469.697,1972.266,1469.693z"/>
	<path d="M2107.208,1464.876c0,28.834,1.319,31.225-4.511,32.114c-10.458,1.596-8.666-4.745-11.374-62.309
		c-0.239-5.089,3.493-4.693,6.796-4.495c9.895,0.592,7.838,5.136,7.838,34.686
		C2106.374,1464.873,2106.791,1464.874,2107.208,1464.876z"/>
	<path d="M2067.866,1470.229c0-11.134,0.704-22.332-0.304-33.374c-0.485-5.312,0.484-6.519,5.292-6.851
		c8.059-0.558,7.303,0.551,10.476,56.453c0.305,5.371-1.871,10.229-7.919,10.674c-6.554,0.481-6.608-4.997-6.776-9.547
		c-0.213-5.779-0.052-11.572-0.052-17.359C2068.344,1470.225,2068.104,1470.227,2067.866,1470.229z"/>
	<path d="M2023.613,1461.732c0-28.574-1.35-33.078,4.401-33.449c4.418-0.285,6.025,2.976,6.201,7.37
		c2.206,54.876,5.604,61.515-4.423,61.11c-7.291-0.295-5.794-4.442-5.794-35.031
		C2023.87,1461.733,2023.742,1461.732,2023.613,1461.732z"/>
	<path d="M2248.747,1483.373c-1.338,11.085-0.18,13.758-9.147,13.739c-4.281-0.009-5.019-3.202-4.092-5.87
		c7.552-21.724-13.786-56.978,4.73-57.082c7.967-0.045,8.831,5.593,6.987,11.051
		C2242.685,1458.641,2246.658,1471.485,2248.747,1483.373z"/>
	<path d="M2272.134,1464.995c0,28.897,1.353,30.381-3.366,31.778c-6.757,2-11.455-4.713-6.243-8.829
		c3.963-3.129,1.524-5.294,0.388-9.067c-4.208-13.975-4.006-28.754-5.069-43.255c-0.334-4.553,3.95-2.934,6.512-3.044
		c3.424-0.148,7.277,0.229,7.01,4.714C2270.805,1446.732,2274.877,1455.976,2272.134,1464.995z"/>
	<path d="M2200.443,1477.511c0,19.467,1.397,19.26-6.637,19.664c-4.154,0.209-6.314-1.235-5.554-5.626
		c4.043-23.363-5.895-59.85,2.702-60.689c8.737-0.853,6.892,5.955,10.086,46.613
		C2200.841,1477.485,2200.642,1477.498,2200.443,1477.511z"/>
	<path d="M2295.04,1454.323c-8.017,23.752,8.023,43.516-6.716,42.326c-9.449-0.763,1.463-18.164-5.063-44.354
		c-2.434-9.769,2.437-22.002,6.134-19.09C2295.754,1438.213,2294.433,1445.548,2295.04,1454.323z"/>
	<path d="M2216.001,1469.578c-5.935-32.669-7.955-35.606-0.846-36.815c13.905-2.364,2.39,26.372,7.353,55.434
		c0.696,4.073,1.428,8.646-4.987,8.837c-6.329,0.189-4.227-4.691-4.462-7.896C2212.58,1482.598,2216.625,1476.453,2216.001,1469.578
		z"/>
	<path d="M2177.455,1452.85c-4.895,18.546,6.592,44.014-5.534,43.894c-6.893-0.068-3.439-6.125-3.554-9.538
		c-0.561-16.66,1.677-33.436-2.385-49.951c-1.634-6.644,6.847-9.741,8.895-1.788
		C2176.285,1440.934,2176.617,1446.677,2177.455,1452.85z"/>
	<path d="M2156.333,1490.643c-0.042,3.664-1.259,6.493-5.693,6.36c-4.867-0.146-5.193-3.77-4.603-7
		c6.355-34.765-5.06-56.329,3.001-57.341C2154.064,1432.032,2157.009,1432.715,2156.333,1490.643z"/>
	<path d="M1818.076,1486.605c-0.005,10.79-10.903,8.298-10.609,0.621c2.098-54.805-6.561-62.187,3.698-61.862
		C1820.472,1425.66,1818.081,1475.219,1818.076,1486.605z"/>
	<path d="M1839.377,1466.724c0,15.798,1.716,28.126-6.431,27.094c-3.757-0.476-5.351-4.028-4.74-7.551
		c5.091-29.361-5.589-60.095,4.412-60.638c6.381-0.347,5.008,3.114,7.147,41.073
		C1839.635,1466.708,1839.506,1466.716,1839.377,1466.724z"/>
	<path d="M1860.417,1492.458c-7.758-3.065-10.699-7.363-9.916-13.22c2.787-20.838-3.998-53.128,2.218-53.851
		C1863.711,1424.108,1859.523,1468.387,1860.417,1492.458z"/>
	<path d="M207.929,890.587c0-22.82,0-45.641,0-68.461C209.046,844.864,217.201,867.437,207.929,890.587z"/>
	<path d="M197.626,837.114c0,18.443,0,36.887,0,55.33c-0.802-0.024-1.604-0.049-2.405-0.073c0-18.493,0-36.986,0-55.479
		C196.023,836.965,196.824,837.039,197.626,837.114z"/>
	<path d="M1388.446,983.009c-1.217,2.88,2.817,9.488-3.26,9.456c-7.075-0.037-5.964-7.537-6.47-12.38
		c-0.416-3.978,0.25-9.622,5.741-8.802C1390.606,972.201,1388.8,978.079,1388.446,983.009z"/>
	<path d="M1404.277,982.571c4.777,12.052-9.231,13.115-8.283,0.869c0.387-5.004-2.471-13.537,3.376-13.921
		C1405.64,969.107,1403.533,977.651,1404.277,982.571z"/>
	<path d="M1373.411,984.812c-0.038,2.482-0.397,8.465-5.159,7.254c-4.275-1.086-4.544-7.749-4.603-12.581
		c-0.044-3.63-0.186-9.035,4.441-8.286C1373.933,972.145,1373.163,978.401,1373.411,984.812z"/>
	<path d="M1337.133,980.335c1.047-3.45-1.052-8.973,3.96-9.05c4.633-0.072,1.833,5.235,2.943,7.947
		c0.151,0.37,0.195,0.809,0.186,1.214c-0.103,4.819,5.517,12.908-1.159,13.614C1336.061,994.801,1339.111,985.067,1337.133,980.335z
		"/>
	<path d="M1354.69,971.014c3.932,17.364,5.663,21.087,1.307,21.63c-2.346,0.292-4.21-0.986-4.018-3.3
		C1352.418,984.029,1349.078,978.374,1354.69,971.014z"/>
	<path d="M64.71,1454.014c2.113-8.029-3.043-17.731-0.515-27.533c0.656-2.545,0.444-6.585,4.68-5.782
		c2.589,0.491,3.595,3.364,3.498,5.96c-1.252,33.261,6.804,50.554-2.135,49.758c-4.073-0.363-6.996-2.788-5.707-8.27
		C65.451,1464.238,64.71,1459.938,64.71,1454.014z"/>
	<path d="M2157.208,867.183c0,14.87,0,29.74,0,44.609c-4.65-14.956-4.596-29.827-3.008-44.673
		C2155.202,867.14,2156.205,867.161,2157.208,867.183z"/>
	<path d="M2207.374,871.031c6.292,11.954,0.947,22.661,0.401,33.349c-0.262,5.122-8.089,3.018-6.494-0.623
		C2205.776,893.497,2199.802,881.474,2207.374,871.031z"/>
	<path d="M2141.617,935.362c-4.457-12.153-1.885-24.743-2.636-37.126c1.165-0.068,2.331-0.136,3.496-0.204
		c1.033,12.358,2.065,24.716,3.098,37.074C2144.256,935.191,2142.937,935.277,2141.617,935.362z"/>
	<path d="M2180.246,906.668c-3.133-11.189-2.977-13.454,1.444-20.954C2184.315,900.015,2184.315,900.015,2180.246,906.668z"/>
	<path d="M2178.541,1151.804c12.153-5.749,14.686,15.867,7.688,16.86c-7.904,1.121,0.929-11.99-6.921-13.011
		c-1.546-0.201-3.044,2.053-3.6,4.343c-0.805,3.312,2.565,10.402-4.466,8.747c-6.279-1.478-2.249-8.378-2.795-12.775
		C2167.392,1147.474,2174.272,1151.209,2178.541,1151.804z"/>
	<path d="M2235.467,1158.362c-0.58,3.364,2.197,8.522-4.19,8.258c-8.479-0.35-5.852-8.818-8.212-13.288
		c-2.085-3.948,4.116-5.93,7.171-5.922C2238.778,1147.435,2233.991,1154.618,2235.467,1158.362z"/>
	<path d="M2205.488,1160.693c0.019,4.98-0.032,8.638-4.79,8.394c-6.304-0.324-5.056-5.392-5.021-9.25
		c0.034-3.826-1.26-10.174,4.289-9.587C2205.427,1150.828,2203.185,1158.313,2205.488,1160.693z"/>
	<path d="M2138.617,1158.561c-1.358,3.401,2.489,10.049-3.087,10.13c-8.151,0.118-3.562-7.556-3.952-11.51
		c-0.304-3.08-3.52-9.905,2.844-9.73C2140.839,1147.627,2137.52,1154.531,2138.617,1158.561z"/>
	<path d="M2103.492,1155.368c1.063-3.609-3.818-9.958,2.602-10.103c5.098-0.115,5.971,5.598,3.774,10.438
		c-2.866,6.314,6.21,12.331-2.079,12.655C2100.47,1168.643,2104.718,1159.889,2103.492,1155.368z"/>
	<path d="M2117.19,1158.189c2.892-3.494-3.289-11.357,4.376-10.623c6.378,0.611,3.228,7.872,3.664,12.452
		c0.377,3.958,0.363,8.968-3.978,8.728C2113.362,1168.309,2119.629,1161.444,2117.19,1158.189z"/>
</g>
</svg>
